<svg viewBox="0 0 40 40" xmlns="http://www.w3.org/2000/svg"><mask id="a" style="mask-type:luminance" maskUnits="userSpaceOnUse" x="0" y="0" width="40" height="40"><path d="M39.893 0v39.893H0V0z" fill="#fff"/></mask><g mask="url(#a)"><path d="M20 0a20 20 0 1 1 0 40 20 20 0 0 1 0-40" fill="#DFE225"/></g><g clip-path="url(#b)"><path d="M8.531 14.512v10.976c0 .706.37 1.344.986 1.702l9.509 5.488a1.97 1.97 0 0 0 1.96 0l9.508-5.488c.605-.347.986-.996.986-1.702V14.512c0-.706-.37-1.344-.986-1.702l-9.508-5.488a1.97 1.97 0 0 0-1.96 0l-9.51 5.488a1.96 1.96 0 0 0-.974 1.702z" fill="#DFE225"/><path d="m22.073 22.128-1.355 3.718a.54.54 0 0 0 0 .325l2.33 6.395 2.698-1.556-3.236-8.882a.233.233 0 0 0-.437 0m2.722-6.25a.233.233 0 0 0-.437 0l-1.355 3.719a.54.54 0 0 0 0 .325l3.819 10.472 2.7-1.557-4.727-12.947z" fill="#242424"/><path d="M20 7.736c.068 0 .135.022.19.056l10.282 5.936a.38.38 0 0 1 .19.336v11.872a.4.4 0 0 1-.19.336l-10.281 5.936a.4.4 0 0 1-.19.056.4.4 0 0 1-.191-.056L9.528 26.272a.38.38 0 0 1-.19-.336V14.053c0-.135.078-.269.19-.336L19.81 7.78a.4.4 0 0 1 .19-.056zM20 6c-.37 0-.728.09-1.064.28L8.655 12.216a2.11 2.11 0 0 0-1.064 1.837v11.872c0 .761.403 1.456 1.064 1.837l10.281 5.936a2.1 2.1 0 0 0 1.064.28c.37 0 .728-.09 1.064-.28l10.282-5.936a2.11 2.11 0 0 0 1.064-1.837V14.053c0-.762-.403-1.456-1.064-1.837L21.053 6.28A2.1 2.1 0 0 0 19.99 6z" fill="#242424"/><path d="m13.19 30.405.952-2.599 1.904 1.58-1.78 1.635z" fill="#DFE225"/><path d="M19.126 13.213h-2.61a.47.47 0 0 0-.436.302l-5.589 15.322 2.7 1.557 6.16-16.879a.23.23 0 0 0-.213-.313zm4.57 0h-2.61c-.19 0-.37.123-.436.302L14.266 31.01l2.699 1.556 6.944-19.05a.23.23 0 0 0-.213-.314z" fill="#242424"/></g><defs><clipPath id="b"><path fill="#fff" d="M6 6h28v28H6z"/></clipPath></defs></svg>