<svg viewBox="0 0 73 73" fill="none" xmlns="http://www.w3.org/2000/svg"><circle cx="36.5" cy="36.5" r="36.5" fill="#DFE225"/><g clip-path="url(#a)" fill="#242424"><path d="M48.389 35.892q0 4.65-3.208 6.807-3.207 2.157-8.904 2.157H24.613v-30.94h10.969q5.965 0 8.546 1.733t2.58 5.49q0 2.883-1.402 4.673t-4.385 2.392q3.903.536 5.685 2.459t1.783 5.23zm-8.076-13.37q0-1.766-1.3-2.447t-4.036-.682H30.94v6.639h3.858q2.803 0 4.161-.782t1.357-2.727zm1.615 12.812q0-2.079-1.412-2.94-1.413-.86-5.294-.862h-4.284v7.735h3.208q3.7 0 5.102-.357 1.401-.36 2.04-1.208.64-.849.64-2.37zm6.572 17.75h-24v6h24z"/></g><defs><clipPath id="a"><path fill="#fff" d="M24 13h25v47H24z"/></clipPath></defs></svg>