<svg width="37" height="37" viewBox="0 0 37 37" fill="none" xmlns="http://www.w3.org/2000/svg"><path d="M18.854.124a18.146 18.146 0 1 1 0 36.292 18.146 18.146 0 0 1 0-36.292" fill="#DFE225"/><mask id="a" style="mask-type:luminance" maskUnits="userSpaceOnUse" x="7" y="6" width="26" height="25"><path d="M32.488 6.697v23.647H7.295V6.697z" fill="#fff"/></mask><g opacity=".8" mask="url(#a)"><mask id="b" style="mask-type:luminance" maskUnits="userSpaceOnUse" x="14" y="6" width="10" height="11"><path d="M19.087 6.697c-1.542.004-3.067.31-4.49.903l3.572 8.636a2.46 2.46 0 0 1 1.93.016l3.578-8.636a11.8 11.8 0 0 0-4.537-.919z" fill="#fff"/></mask><g mask="url(#b)"><path d="M24.03 6.346v10.185h-9.712V6.346z" fill="#242424"/></g><mask id="c" style="mask-type:luminance" maskUnits="userSpaceOnUse" x="8" y="7" width="11" height="11"><path d="M10.742 10.176a11.8 11.8 0 0 0-2.56 3.86l8.636 3.575a2.46 2.46 0 0 1 1.353-1.377L14.595 7.6a11.8 11.8 0 0 0-3.853 2.576" fill="#fff"/></mask><g mask="url(#c)"><path d="M23.185 3.309v20.018H3.167V3.308z" fill="#242424"/></g><mask id="d" style="mask-type:luminance" maskUnits="userSpaceOnUse" x="20" y="7" width="11" height="11"><path d="M20.1 16.252a2.47 2.47 0 0 1 1.303 1.322l.02.054 8.637-3.577-.021-.052a11.78 11.78 0 0 0-6.361-6.382z" fill="#fff"/></mask><g mask="url(#d)"><path d="M35.039 2.482V22.5H15.02V2.482z" fill="#242424"/></g><mask id="e" style="mask-type:luminance" maskUnits="userSpaceOnUse" x="21" y="14" width="10" height="10"><path d="M21.424 17.628a2.46 2.46 0 0 1-.037 1.877l8.636 3.577a11.78 11.78 0 0 0 .036-9.031z" fill="#fff"/></mask><g mask="url(#e)"><path d="M31.65 13.019v10.887H20.29V13.02z" fill="#242424"/></g><mask id="f" style="mask-type:luminance" maskUnits="userSpaceOnUse" x="7" y="14" width="10" height="10"><path d="M7.295 18.574c.006 1.534.31 3.053.898 4.47l.023.053 8.637-3.577-.023-.052a2.48 2.48 0 0 1-.016-1.857l-8.632-3.576a11.8 11.8 0 0 0-.887 4.539" fill="#fff"/></mask><g mask="url(#f)"><path d="M17.48 13.37v10.058H6.944V13.37z" fill="#242424"/></g><mask id="g" style="mask-type:luminance" maskUnits="userSpaceOnUse" x="20" y="19" width="11" height="11"><path d="M20.856 20.289a2.5 2.5 0 0 1-.787.52l3.578 8.637a11.8 11.8 0 0 0 6.382-6.36l-8.637-3.577a2.5 2.5 0 0 1-.535.78" fill="#fff"/></mask><g mask="url(#g)"><path d="M35.04 14.424v20.018H15.021V14.424z" fill="#242424"/></g><mask id="h" style="mask-type:luminance" maskUnits="userSpaceOnUse" x="8" y="19" width="11" height="11"><path d="M8.219 23.097a11.78 11.78 0 0 0 6.412 6.36l3.577-8.637a2.46 2.46 0 0 1-1.353-1.3z" fill="#fff"/></mask><g mask="url(#h)"><path d="M22.979 14.424v20.018H3.08V14.424z" fill="#242424"/></g><mask id="i" style="mask-type:luminance" maskUnits="userSpaceOnUse" x="14" y="20" width="10" height="11"><path d="M19.14 20.994a2.5 2.5 0 0 1-.93-.173l-3.577 8.635c1.42.583 2.938.884 4.473.888h.035a11.8 11.8 0 0 0 4.502-.898l-3.573-8.64a2.5 2.5 0 0 1-.927.188" fill="#fff"/></mask><g mask="url(#i)"><path d="M24.383 20.043v10.888H13.969V20.043z" fill="#242424"/></g></g></svg>