<svg viewBox="0 0 40 40" xmlns="http://www.w3.org/2000/svg"><mask id="a" style="mask-type:luminance" maskUnits="userSpaceOnUse" x="0" y="0" width="40" height="40"><path d="M39.893 0v39.893H0V0z" fill="#fff"/></mask><g mask="url(#a)"><path d="M20 0a20 20 0 1 1 0 40 20 20 0 0 1 0-40" fill="#DFE225"/></g><path fill-rule="evenodd" clip-rule="evenodd" d="M20.413 8.228c-.085-.135.07-.293.196-.2l5.267 3.876c3.32 2.443 4.847 6.805 3.795 10.915q-.11.432-.257.85c-.052.148-.259.116-.27-.041-.088-1.339-1.005-2.869-1.67-3.98q-.18-.298-.326-.55c-.647-1.125-5.327-8.618-6.735-10.87M13.44 19.13l6.304-10.907c.073-.127-.06-.274-.184-.206-1.102.605-4.076 2.353-6.41 4.804-2.559 2.687-.491 5.635.064 6.327a.136.136 0 0 0 .225-.018m6.148 12.642c.085.135-.07.293-.196.2l-5.267-3.876c-3.32-2.443-4.848-6.805-3.795-10.915a10 10 0 0 1 .257-.85c.052-.148.259-.116.27.041.088 1.34 1.004 2.87 1.67 3.98q.18.298.326.55c.647 1.126 5.327 8.618 6.735 10.87m.67.004 6.304-10.907a.14.14 0 0 1 .047-.048.135.135 0 0 1 .179.03c.555.692 2.623 3.64.064 6.327-2.334 2.451-5.308 4.2-6.41 4.804-.125.068-.257-.08-.184-.206" fill="#242424"/></svg>