<svg width="41" height="41" viewBox="0 0 41 41" fill="none" xmlns="http://www.w3.org/2000/svg">
<mask id="mask0_352_2032" style="mask-type:luminance" maskUnits="userSpaceOnUse" x="0" y="0" width="41" height="41">
<path d="M40.8749 0.110107V40.9098H0.0751953V0.110107H40.8749Z" fill="white"/>
</mask>
<g mask="url(#mask0_352_2032)">
<path d="M20.0752 0.110107C24.0308 0.110107 27.8976 1.28309 31.1866 3.48072C34.4756 5.67834 37.039 8.80192 38.5528 12.4564C40.0665 16.111 40.4626 20.1323 39.6909 24.0119C38.9192 27.8915 37.0144 31.4552 34.2173 34.2522C31.4203 37.0493 27.8566 38.9541 23.977 39.7258C20.0974 40.4975 16.076 40.1015 12.4215 38.5877C8.767 37.0739 5.64343 34.5105 3.4458 31.2215C1.24817 27.9325 0.0751953 24.0657 0.0751953 20.1101C0.0751953 14.8058 2.18233 9.7187 5.93306 5.96797C9.68379 2.21724 14.7709 0.110107 20.0752 0.110107Z" fill="#DFE225"/>
</g>
<path d="M25.1666 11.2162C25.3878 11.713 25.4025 12.2773 25.2077 12.785C25.0128 13.2927 24.6243 13.7022 24.1276 13.9235L12.885 18.9292C12.639 19.0387 12.3738 19.0987 12.1045 19.1058C11.8353 19.1128 11.5673 19.0668 11.3159 18.9702C11.0644 18.8737 10.8345 18.7286 10.6391 18.5432C10.4438 18.3578 10.2868 18.1357 10.1773 17.8897C10.0677 17.6437 10.0077 17.3784 10.0007 17.1092C9.99366 16.84 10.0397 16.572 10.1362 16.3206C10.2328 16.0691 10.3779 15.8392 10.5633 15.6438C10.7487 15.4484 10.9707 15.2915 11.2168 15.182L22.4593 10.1772C22.9562 9.95609 23.5204 9.94133 24.0281 10.1362C24.5358 10.331 24.9453 10.7195 25.1666 11.2162Z" fill="#242424"/>
<path d="M22.0481 19.3399C22.2693 19.8367 22.284 20.401 22.0892 20.9087C21.8943 21.4164 21.5058 21.8259 21.0091 22.0472L13.5138 25.3837C13.2669 25.4994 12.9994 25.5646 12.727 25.5757C12.4546 25.5868 12.1827 25.5435 11.9272 25.4482C11.6718 25.353 11.4378 25.2078 11.2392 25.021C11.0405 24.8343 10.881 24.6099 10.7701 24.3608C10.6592 24.1118 10.5991 23.8431 10.5932 23.5705C10.5874 23.2979 10.636 23.0269 10.7361 22.7734C10.8362 22.5198 10.9859 22.2887 11.1764 22.0936C11.3669 21.8986 11.5944 21.7435 11.8455 21.6374L19.3409 18.3009C19.8377 18.0797 20.4019 18.065 20.9096 18.2598C21.4173 18.4547 21.8268 18.8432 22.0481 19.3399Z" fill="#242424"/>
<path d="M30.1713 22.4579C30.3925 22.9547 30.4072 23.519 30.2124 24.0267C30.0175 24.5344 29.629 24.9439 29.1323 25.1652L17.8897 30.17C17.6428 30.2857 17.3754 30.3509 17.103 30.362C16.8305 30.3731 16.5587 30.3298 16.3032 30.2345C16.0477 30.1393 15.8138 29.9941 15.6151 29.8073C15.4165 29.6206 15.257 29.3962 15.1461 29.1471C15.0352 28.8981 14.9751 28.6294 14.9692 28.3568C14.9634 28.0842 15.0119 27.8132 15.1121 27.5597C15.2122 27.3061 15.3619 27.075 15.5524 26.8799C15.7429 26.6849 15.9703 26.5298 16.2215 26.4237L27.4641 21.4189C27.9609 21.1978 28.5251 21.183 29.0328 21.3779C29.5405 21.5727 29.95 21.9612 30.1713 22.4579Z" fill="#242424"/>
</svg>
