<svg width="41" height="41" viewBox="0 0 41 41" fill="none" xmlns="http://www.w3.org/2000/svg">
<path d="M20.0752 0.110107C24.0308 0.110107 27.8976 1.28309 31.1866 3.48072C34.4756 5.67834 37.039 8.80192 38.5528 12.4564C40.0665 16.111 40.4626 20.1323 39.6909 24.0119C38.9192 27.8915 37.0144 31.4552 34.2173 34.2522C31.4203 37.0493 27.8566 38.9541 23.977 39.7258C20.0974 40.4975 16.076 40.1015 12.4215 38.5877C8.767 37.0739 5.64343 34.5105 3.4458 31.2215C1.24817 27.9325 0.0751953 24.0657 0.0751953 20.1101C0.0751953 14.8058 2.18233 9.7187 5.93306 5.96797C9.68379 2.21724 14.7709 0.110107 20.0752 0.110107Z" fill="#DFE225"/>
</svg>
