<svg viewBox="0 0 41 41" fill="none" xmlns="http://www.w3.org/2000/svg"><mask id="a" style="mask-type:luminance" maskUnits="userSpaceOnUse" x="0" y="0" width="41" height="41"><path d="M40.875.11v40.8H.075V.11z" fill="#fff"/></mask><g mask="url(#a)"><path d="M20.075.11a20 20 0 1 1 0 40 20 20 0 0 1 0-40" fill="#DFE225"/></g><path d="M25.167 11.216a2.05 2.05 0 0 1-1.04 2.708l-11.242 5.005a2.052 2.052 0 0 1-2.749-2.608 2.05 2.05 0 0 1 1.08-1.139l11.243-5.005a2.05 2.05 0 0 1 2.708 1.04m-3.119 8.123a2.05 2.05 0 0 1-1.039 2.707l-7.495 3.337a2.051 2.051 0 1 1-1.668-3.747l7.495-3.336a2.05 2.05 0 0 1 2.707 1.039m8.123 3.118a2.05 2.05 0 0 1-1.039 2.707L17.89 30.17a2.05 2.05 0 1 1-1.669-3.746l11.243-5.005a2.05 2.05 0 0 1 2.707 1.039" fill="#242424"/></svg>