<svg viewBox="0 0 73 73" fill="none" xmlns="http://www.w3.org/2000/svg"><circle cx="36.5" cy="36.5" r="36.5" fill="#DFE225"/><g clip-path="url(#a)"><path fill-rule="evenodd" clip-rule="evenodd" d="m34.828 17.43 5.756-3.27c.655-.373 1.186-.071 1.186.674 0 .744-.531 1.65-1.186 2.021l-5.756 3.272c-.655.372-1.186.07-1.186-.674 0-.745.53-1.65 1.186-2.023m0 5.76 5.756-3.27c.655-.373 1.186-.071 1.186.673 0 .745-.531 1.65-1.186 2.022l-5.756 3.271c-.655.373-1.186.07-1.186-.674s.53-1.65 1.186-2.022m18.107 27.643V44.29c0-.744-.53-1.65-1.186-2.022s-1.186-.07-1.186.674v6.543c0 .744.531 1.65 1.186 2.022.656.372 1.186.07 1.186-.674m-5.067-9.423v6.542c0 .745-.532 1.047-1.187.674-.654-.372-1.186-1.277-1.186-2.022v-6.542c0-.744.532-1.046 1.187-.674.654.373 1.186 1.278 1.186 2.022m-.537-16.84-10.13 5.757a2 2 0 0 1-.267.123l-2.106 1.197c-.655.372-1.186.07-1.186-.674s.53-1.65 1.186-2.022l5.756-3.271q.124-.07.241-.11l4.134-2.349c.655-.372 1.717-.372 2.372 0 .656.372.656.976 0 1.348m4.422 1.158 5.756 3.271c.655.372.655.976 0 1.348s-1.717.372-2.372 0l-5.757-3.271c-.655-.372-.655-.976 0-1.348.656-.372 1.718-.372 2.373 0m.688 6.151-5.756-3.27c-.656-.373-1.718-.373-2.373 0-.654.371-.654.975 0 1.347l5.757 3.271c.655.373 1.717.373 2.372 0 .655-.372.655-.975 0-1.348m-5.068 2.88-5.756-3.271c-.655-.372-1.717-.372-2.372 0s-.655.976 0 1.348l2.302 1.309.066.04 10.131 5.756c.656.373 1.187.07 1.187-.674s-.531-1.65-1.187-2.022l-4.307-2.447zm-4.574 3.771v6.542q0 .142-.025.262v4.697c0 .745-.53 1.65-1.186 2.023-.655.372-1.186.07-1.186-.675V39.866q0-.143.025-.29v-2.393c0-.744.531-1.046 1.186-.674s1.186 1.278 1.186 2.022m-5.627 16.04-5.756 3.27c-.655.373-1.187.071-1.187-.674 0-.744.532-1.65 1.187-2.021l5.756-3.272c.655-.372 1.186-.07 1.186.675 0 .744-.531 1.65-1.186 2.021m-5.756-2.49 5.756-3.27c.655-.373 1.186-1.279 1.186-2.023s-.531-1.046-1.186-.674l-5.756 3.271c-.655.372-1.187 1.278-1.187 2.022 0 .745.532 1.046 1.187.674m6.942-11.053c0 .63-.382 1.377-.897 1.817a1.3 1.3 0 0 1-.29.22l-10.13 5.757c-.655.372-1.717.372-2.372 0s-.655-.976 0-1.348l6.569-3.733q.087-.065.178-.116l5.756-3.271c.655-.373 1.186-.07 1.186.674M14.49 43.043l5.756 3.27c.655.373 1.717.373 2.372 0 .656-.371.656-.975 0-1.347l-5.756-3.271c-.655-.372-1.717-.372-2.372 0s-.655.976 0 1.348m10.824.39-5.756-3.27c-.655-.373-.655-.976 0-1.348s1.717-.373 2.372 0l5.756 3.27c.656.373.656.976 0 1.349-.655.372-1.717.372-2.372 0M20.28 32.1l10.131 5.758q.093.053.183.12l2.161 1.228c.655.372.655.976 0 1.348s-1.717.372-2.372 0l-5.756-3.271a2 2 0 0 1-.17-.112l-4.177-2.375c-.655-.372-1.186-1.277-1.186-2.022s.531-1.046 1.186-.674m-1.191-4.349V21.21c0-.744.531-1.046 1.186-.674s1.186 1.278 1.186 2.022V29.1c0 .745-.53 1.047-1.186.674s-1.186-1.277-1.186-2.022m5.068-3.661v6.542c0 .744.531 1.65 1.186 2.022s1.186.07 1.186-.674v-6.542c0-.745-.53-1.65-1.186-2.022-.655-.373-1.186-.071-1.186.674m7.44-3.47v7.662l-2.372 5.2V21.969c0-.744.531-1.65 1.186-2.022s1.186-.07 1.186.674m0 7.662-2.372 5.237c.004.743.534 1.644 1.187 2.015.655.372 1.186.07 1.186-.674v-6.578" fill="#242424"/></g><defs><clipPath id="a"><path fill="#fff" d="M14 14h44v44H14z"/></clipPath></defs></svg>