<svg viewBox="0 0 79 79" fill="none" xmlns="http://www.w3.org/2000/svg"><path d="M39.5 76.562c20.469 0 37.062-16.593 37.062-37.062S59.969 2.438 39.5 2.438 2.438 19.031 2.438 39.5 19.032 76.562 39.5 76.562" fill="#DFE225"/><path fill-rule="evenodd" clip-rule="evenodd" d="M48.522 33.892c1.462 1.95 2.194 4.633 2.194 7.07 0 2.44-.732 4.877-2.194 6.828l2.925 2.195c1.951-2.682 2.926-5.852 2.926-9.266s-1.219-6.827-3.17-9.753l-1.706 1.463z" fill="#242424"/><path fill-rule="evenodd" clip-rule="evenodd" d="m54.13 52.179-10.24-7.803c.73-.975 1.218-2.194 1.218-3.413 0-1.22-.243-2.438-.975-3.414l4.877-4.389 5.12-4.876c.244-.244.244-.975 0-1.22l-.488-.487c-3.657-3.657-8.534-5.852-13.654-6.096v-3.413c0-.244-.244-.244-.244-.488s-.244-.244-.487-.244c-.244 0-.244-.243-.488-.243s-.488 0-.488.243c-.244 0-.244.244-.487.244-.244.244-.244.488-.488.488v3.413c-1.22.244-2.438.244-3.657.732v-4.145c0-.244-.244-.244-.244-.488-.244-.244-.244-.244-.488-.244s-.244-.243-.488-.243-.487 0-.487.243c-.244 0-.244.244-.488.244-.244.244-.244.488-.244.488v5.12c-4.145 1.95-7.558 5.12-9.753 9.266-2.194 4.145-2.682 8.777-1.95 13.41.975 4.633 3.413 8.534 6.827 11.46 3.413 2.926 8.046 4.633 12.679 4.633h14.873c.488 0 .732-.488.732-.732v-7.558zm-14.873 5.364c-3.658 0-7.315-1.219-9.997-3.413-2.926-2.195-4.877-5.365-5.852-9.022s-.732-7.315.731-10.728c1.463-3.414 3.902-6.096 7.071-8.047v5.852c0 .244.244.244.244.488.244.244.244.244.488.244.243 0 .243.243.487.243s.488 0 .488-.243c.244 0 .244-.244.488-.244.243-.244.243-.244.243-.488V24.87c1.951-.731 3.658-.975 5.608-.975 3.658 0 7.072 1.22 9.997 3.414q.366.365 0 .731l-7.802 7.315c-.732-.244-1.463-.488-2.194-.488-.732 0-1.707.244-2.439.488-.731.244-1.463.975-1.95 1.463-.488.731-.976 1.463-1.22 2.194-.243.732-.243 1.707-.243 2.439.243.975.487 1.706.975 2.438a5.7 5.7 0 0 0 1.707 1.707c.731.487 1.463.731 2.438.975.732.244 1.707 0 2.438-.244l9.997 7.559.244.244v2.682c0 .244-.244.487-.488.487zm2.438-16.58c0 .488-.244.975-.488 1.22-.244.487-.731.73-.975.974-.488.244-.975.244-1.463.244s-.975-.244-1.22-.731c-.243-.244-.487-.732-.73-1.22 0-.487 0-.975.243-1.462.244-.488.488-.732.975-.976.488-.243.732-.487 1.22-.487.731 0 1.219.244 1.706.731.488.244.732.975.732 1.707" fill="#242424"/></svg>