<svg viewBox="0 0 41 41" fill="none" xmlns="http://www.w3.org/2000/svg"><path d="M20.075.3a20 20 0 1 1 0 40 20 20 0 0 1 0-40" fill="#DFE225"/><path d="m28.65 17.335-3.696-5.378a1.016 1.016 0 0 0-1.85.628 5.93 5.93 0 0 0 1.223 3.134l-.005.006c-.342-.255-5.49-4.122-11.611-2.063h-.008a1.19 1.19 0 0 0-.85 1.451 1.217 1.217 0 0 0 1.385.859 15.4 15.4 0 0 1 3.86-.209c1.274.105 2.516.446 3.666 1.005a12.8 12.8 0 0 1 3.162 2.294 20.5 20.5 0 0 1 2.425 3.24.68.68 0 0 0 .822.307.697.697 0 0 0 .396-.906 14 14 0 0 0-1.042-2.174l.005-.005c.416.229.894.322 1.366.266a1.33 1.33 0 0 0 .924-.755 1.75 1.75 0 0 0-.171-1.7M11.59 23.238l3.718 5.408a1.006 1.006 0 0 0 1.83-.643 5.9 5.9 0 0 0-1.223-3.149v-.005c.343.255 5.494 4.121 11.612 2.062h.007a1.19 1.19 0 0 0 .849-1.45 1.215 1.215 0 0 0-1.385-.858c-1.272.232-2.57.302-3.86.208a10.3 10.3 0 0 1-3.665-1.004 12.8 12.8 0 0 1-3.165-2.292 20.6 20.6 0 0 1-2.418-3.243.68.68 0 0 0-.854-.296.706.706 0 0 0-.363.907c.285.75.633 1.474 1.041 2.164l-.005.005a2.3 2.3 0 0 0-1.366-.266 1.32 1.32 0 0 0-.923.753 1.75 1.75 0 0 0 .17 1.699" fill="#242424"/></svg>