<svg viewBox="0 0 36 36" xmlns="http://www.w3.org/2000/svg"><g clip-path="url(#a)"><mask id="b" style="mask-type:luminance" maskUnits="userSpaceOnUse" x="0" y="0" width="36" height="36"><path d="M36 0H0v36h36z" fill="#fff"/></mask><g mask="url(#b)"><path d="M18 36c9.941 0 18-8.059 18-18S27.941 0 18 0 0 8.059 0 18s8.059 18 18 18" fill="#DFE225"/><path d="M12.753 22.784q-1.608 0-2.634-.756-1.014-.77-1.014-2.189 0-.297.068-.73.176-.972.5-2.337.918-3.715 4.742-3.715 1.04 0 1.864.351.825.338 1.297 1.027.473.675.473 1.621 0 .285-.067.716-.204 1.202-.487 2.338-.473 1.85-1.635 2.769-1.161.905-3.107.905m.19-1.945q.756 0 1.283-.446.54-.445.77-1.365a33 33 0 0 0 .473-2.215q.054-.284.054-.581 0-1.23-1.284-1.23-.756.001-1.297.446-.526.445-.756 1.365a29 29 0 0 0-.487 2.215 3 3 0 0 0-.054.568q0 1.242 1.297 1.243m5.728 1.81a.29.29 0 0 1-.23-.095.32.32 0 0 1-.04-.243l1.864-8.781q.027-.15.148-.243a.4.4 0 0 1 .257-.095h3.594q1.499 0 2.404.621.92.622.919 1.797 0 .339-.081.703-.338 1.554-1.364 2.297-1.014.743-2.784.743h-1.823l-.622 2.958a.4.4 0 0 1-.148.243.4.4 0 0 1-.257.095zm4.782-5.16q.567 0 .986-.312.433-.31.568-.891.04-.23.04-.406 0-.39-.23-.594-.23-.216-.783-.216h-1.621l-.514 2.418z" fill="#242424"/></g></g><defs><clipPath id="a"><path fill="#fff" d="M0 0h36v36H0z"/></clipPath></defs></svg>