<svg viewBox="0 0 73 73" fill="none" xmlns="http://www.w3.org/2000/svg"><g clip-path="url(#a)"><path d="M36.457 68.466c17.347 0 31.41-14.063 31.41-31.41s-14.063-31.41-31.41-31.41-31.41 14.063-31.41 31.41 14.063 31.41 31.41 31.41" fill="#242424"/><path d="M42.103 32.052H30.54v2.024h11.563c.556 0 1.012-.456 1.012-1.012s-.456-1.012-1.012-1.012" fill="#DFE225"/><path d="M36.5 0C16.34 0 0 16.34 0 36.5S16.34 73 36.5 73 73 56.66 73 36.5 56.66 0 36.5 0m15.341 41.148v6.402h-8.825v-5.432s.356-2.296-2.895-2.296H30.57v7.728h-9.425V25.436h24.652s6.045.727 6.045 5.19-2.894 5.803-2.894 5.803 2.894 1.825 2.894 4.719" fill="#DFE225"/></g><defs><clipPath id="a"><path fill="#fff" d="M0 0h73v73H0z"/></clipPath></defs></svg>