<svg viewBox="0 0 48 40" fill="none" xmlns="http://www.w3.org/2000/svg"><g clip-path="url(#a)"><mask id="b" style="mask-type:luminance" maskUnits="userSpaceOnUse" x="3" y="0" width="41" height="40"><path d="M43.518 0v39.893H3.625V0z" fill="#fff"/></mask><g mask="url(#b)"><path d="M23.625 0a20 20 0 1 1 0 40 20 20 0 0 1 0-40" fill="#DFE225"/></g><path d="M34.654 20.396h-2.61c-.779 0-1.41.65-1.41 1.454v3.904c0 .803-.632 1.454-1.411 1.454h-10.38c-.78 0-1.411.65-1.411 1.454v2.69c0 .803.631 1.454 1.41 1.454h10.982c.78 0 1.402-.65 1.402-1.454v-2.158c0-.803.631-1.373 1.41-1.373h2.017c.78 0 1.411-.651 1.411-1.455v-4.533c0-.803-.63-1.437-1.41-1.437M17.43 15.052c0-.803.632-1.454 1.412-1.454h10.374c.78 0 1.41-.65 1.41-1.454v-2.69c0-.803-.63-1.454-1.41-1.454H18.24c-.78 0-1.41.65-1.41 1.454v2.073c0 .803-.632 1.454-1.411 1.454H13.41c-.78 0-1.411.65-1.411 1.454v4.539c0 .803.634 1.421 1.413 1.421h2.61c.779 0 1.41-.65 1.41-1.454zm5.374 2.516h2.506c.817 0 1.48.684 1.48 1.525v2.584c0 .842-.664 1.525-1.48 1.525h-2.506c-.817 0-1.48-.684-1.48-1.525v-2.584c0-.842.663-1.525 1.48-1.525" fill="#242424"/></g><defs><clipPath id="a"><path fill="#fff" d="M0 0h47.25v40H0z"/></clipPath></defs></svg>