<svg width="41" height="41" viewBox="0 0 41 41" fill="none" xmlns="http://www.w3.org/2000/svg">
<path d="M20.0752 0.709961C24.0308 0.709961 27.8976 1.88294 31.1866 4.08057C34.4756 6.2782 37.039 9.40177 38.5528 13.0563C40.0665 16.7108 40.4626 20.7321 39.6909 24.6118C38.9192 28.4914 37.0144 32.055 34.2173 34.8521C31.4203 37.6491 27.8566 39.554 23.977 40.3257C20.0974 41.0974 16.076 40.7013 12.4215 39.1876C8.767 37.6738 5.64343 35.1103 3.4458 31.8214C1.24817 28.5324 0.0751953 24.6656 0.0751953 20.71C0.0751953 15.4056 2.18233 10.3186 5.93306 6.56783C9.68379 2.8171 14.7709 0.709961 20.0752 0.709961Z" fill="#DFE225"/>
</svg>
