<svg viewBox="0 0 41 41" fill="none" xmlns="http://www.w3.org/2000/svg"><mask id="a" style="mask-type:luminance" maskUnits="userSpaceOnUse" x="0" y="0" width="41" height="41"><path d="M40.625.5v40h-40V.5z" fill="#fff"/></mask><g mask="url(#a)"><path d="M20.233.5a19.608 19.608 0 1 1 0 39.216 19.608 19.608 0 0 1 0-39.216" fill="#DFE225"/></g><path d="M17.922 13.487c-.261-.038-.274-.051-.15-.062a4.1 4.1 0 0 1 1.169.1c1.012.29 1.907.89 2.56 1.714l.224.262.322-.05a6.93 6.93 0 0 1 3.977.498q.474.215.895.522.07.168.088.348c.106.454.058.93-.136 1.355a.37.37 0 0 0-.038.398.37.37 0 0 0 .335.212c.298 0 .61-.473.758-1.131l.061-.261.112.124a4.9 4.9 0 0 1 1.206 2.387l.025.185-.112-.161a2.1 2.1 0 0 0-.596-.635 3.7 3.7 0 0 0-2.051-.435 8.4 8.4 0 0 1-2.274-.347c-1.018-.335-1.541-.77-2.746-2.375a11.3 11.3 0 0 0-1.207-1.416 4.2 4.2 0 0 0-2.422-1.23z" fill="#242424"/><path d="M27.181 15.064c.001-.367.077-.73.223-1.066a1 1 0 0 1 .112-.21c.013 0-.012.088-.05.185-.1.356-.118.73-.05 1.094.09.56.125.635.722 1.245.273.286.596.646.72.795l.212.274-.211-.198a7.6 7.6 0 0 0-.994-.783c-.09-.05-.1-.05-.162.012s-.061.124-.061.484c.015.44-.08.875-.274 1.268-.1.186-.112.15-.025-.061a1.8 1.8 0 0 0 .074-.77c0-1.082-.125-1.342-.882-1.778a9 9 0 0 0-.696-.36 3 3 0 0 1-.335-.163 5.5 5.5 0 0 1 1.044.31c.435.178.51.186.56.178.037-.036.063-.136.075-.444zm-8.752 1.854a4.4 4.4 0 0 1-.783-2.672l.025-.261.124.024c.278.06.547.16.796.3.497.297.72.71.932 1.726.061.299.15.646.186.758q.196.477.498.895c.136.198.05.297-.262.273a2.55 2.55 0 0 1-1.516-1.043m8.118 5.406c-2.462-.994-3.331-1.852-3.331-3.307 0-.211.012-.385.012-.385q.111.075.21.161c.499.399 1.058.572 2.612.796.644.075 1.281.209 1.902.398a3.63 3.63 0 0 1 2.66 2.896c.055.519.03 1.043-.074 1.554a3.1 3.1 0 0 1-.398.894c-.012 0-.037-.061-.037-.162a2.03 2.03 0 0 0-.721-1.404 10 10 0 0 0-2.835-1.441m-1.74.412a3 3 0 0 0-.124-.522l-.062-.186.112.137c.177.213.313.457.398.72.083.223.113.461.09.697a1.6 1.6 0 0 1-.09.67 2.25 2.25 0 0 1-.522.834 3 3 0 0 1-1.867.82c-.15.013-.572.05-.945.074a7.3 7.3 0 0 0-2.113.348c-.074.024-.15.05-.162.037q.308-.246.672-.398a6.8 6.8 0 0 1 1.866-.498q.561-.076 1.107-.223a2.147 2.147 0 0 0 1.64-2.51" fill="#242424"/><path d="M25.936 24.735a2.9 2.9 0 0 1-.224-2.015c.025-.06.05-.124.074-.124a.6.6 0 0 1 .178.089c.15.1.46.274 1.255.71a6.4 6.4 0 0 1 1.976 1.454c.352.433.58.953.659 1.504a5 5 0 0 1-.062 1.48 3.67 3.67 0 0 1-1.802 2.386q-.126.073-.262.124a1 1 0 0 1 .112-.273 2.47 2.47 0 0 0 .112-1.927 8 8 0 0 0-.993-1.79 12 12 0 0 1-1.02-1.614zm-9.256 3.803a6.76 6.76 0 0 1 3.094-1.491 4.6 4.6 0 0 1 1.6.061c.622.145 1.175.5 1.566 1.006.325.509.52 1.088.572 1.69.05.334.112.683.124.757.064.38.257.725.547.978a1.9 1.9 0 0 0 1.714.05.8.8 0 0 1 .211-.061q-.236.226-.533.36a1.76 1.76 0 0 1-.895.212 1.8 1.8 0 0 1-1.516-.932 7 7 0 0 1-.41-.82 3 3 0 0 0-1.169-1.642 1.53 1.53 0 0 0-1.453-.137.937.937 0 0 0-.323 1.455c.191.197.44.328.711.373a.76.76 0 0 0 .858-.757.596.596 0 0 0-.41-.61c-.398-.177-.832.026-.82.41a.34.34 0 0 0 .236.336c.1.048.1.048.025.037a.462.462 0 0 1-.161-.808.892.892 0 0 1 1.333.285c.102.271.11.569.025.846a1.163 1.163 0 0 1-1.417.67 2.02 2.02 0 0 1-1.082-.733 3.3 3.3 0 0 0-2.449-1.255l-.236-.037.261-.248z" fill="#242424"/><path fill-rule="evenodd" clip-rule="evenodd" d="M10.14 8.54c2.896 3.517 7.359 8.986 7.582 9.285.186.248.112.484-.198.658-.222.112-.464.18-.712.198a.9.9 0 0 1-.596-.261c-.112-.112-.596-.82-1.689-2.523q-.767-1.206-1.554-2.4c.419.932.91 1.83 1.467 2.685q.708 1.153 1.268 2.387c0 .161-.05.248-.25.472a2.77 2.77 0 0 0-.596 1.678 5.2 5.2 0 0 1-1.417 2.857 5 5 0 0 0-.783 1.107c-.164.306-.25.648-.249.995a3.1 3.1 0 0 0 .162 1.218c.136.418.337.812.597 1.168.205.272.36.58.46.906 0 .1.024.1.471 0a4.9 4.9 0 0 0 2.437-1.194 1.12 1.12 0 0 0 .373-.944 1 1 0 0 0-.089-.523 2.23 2.23 0 0 0-.87-.845 1.96 1.96 0 0 1-1.03-1.334 2.34 2.34 0 0 1 .385-1.491 4.44 4.44 0 0 0 .547-1.964c.037-.523.1-.733.249-.894a.93.93 0 0 1 .683-.286c.506-.03.987-.226 1.368-.56a1.17 1.17 0 0 0 .422-.906l.012-.286-.162-.178c-.584-.671-8.675-9.57-8.71-9.57-.013 0 .185.236.422.533zm3.816 17.674a.513.513 0 0 0-.162-.684c-.21-.137-.534-.074-.534.112a.13.13 0 0 0 .1.125c.112.061.125.124.037.261-.087.137-.088.261.025.349a.356.356 0 0 0 .534-.162zm5.035-6.537a1.1 1.1 0 0 0-.67.733c-.054.225-.032.46.06.671.137.178.262.224.61.224.683 0 1.267-.297 1.333-.658a.96.96 0 0 0-.56-.895 1.25 1.25 0 0 0-.77-.075zm.796.622a.28.28 0 0 0-.125-.422c-.335-.212-.845-.037-.845.286 0 .162.261.336.51.336a.68.68 0 0 0 .46-.2" fill="#242424"/></svg>