<svg viewBox="0 0 1061 374" fill="none" xmlns="http://www.w3.org/2000/svg"><path d="M460.019 93.015h40v160h40v-200h-40c-22 0-40 18-40 40m120 40v120h40v-80c0-22-18-40-40-40m160 0h-80v120h40v-80h40v40c0 22 18 40 40 40v-80c0-22-18-40-40-40m280.001 0h-40.001v-40c0-22-18-40-40-40v160h-80v-40h40v-40h-40c-22 0-40 18-40 40v40c0 22 18 40 40 40h120v-80h40.001v40c0 22 18 40 40 40v-80c0-22-18-40-40-40m-440.001-80v40h40c0-22-18-40-40-40" fill="#fff"/><path d="M298.919 39.115s16.4.7 33.4 2.6c-38.4-30.2-74.8-39-104.3-39-40.7 0-68.2 16.7-69.8 17.7l12.8-20.3s-51.2-4.9-69.2 49.2c-4.6-11.5-8.9-28.2-8.9-28.2s-26.6 23.3-14.1 62c-30.5-11.1-74.1-26.6-75.7-26.9-2.3-.3-3 .7-3 .7s-.7 1 1.3 2.6c3.6 3 72.5 53.8 87.5 63.6-3.3 11.8-3.3 17.4 0 23 4.6 7.5 4.9 11.5 4.3 17.1-.7 5.6-6.6 53.8-7.9 59.7s-15.1 26.9-14.4 33.1 9.2 32.8 16.7 35.7c5.6 2 19.3 6.2 28.5 6.2 3.3 0 6.2-.7 7.5-2 5.6-4.9 7.2-5.9 11.1-5.9h1c1.6 0 3.6.3 5.9.3 5.2 0 12.1-1 17.1-5.6 7.2-7.2 19.7-17.1 23.6-21.6 4.9-6.2 7.5-14.8 6.2-23.3-1-7.9 3.3-14.8 8.2-21.6 6.2-8.2 17.7-23 17.7-23 22.6 17.1 36.7 43 36.7 71.8 0 51.2-44.6 92.5-99.7 92.5-8.5 0-16.7-1-24.9-3 25.2 8.9 46.6 11.8 63.9 11.8 37.1 0 56.7-13.4 56.7-13.4s-6.9 8.9-18 19h.3c61.3-8.5 91.2-59 91.2-59s-2.3 16.4-5.2 27.5c81.6-61.3 67.9-138 67.5-140.7.7 1 8.9 10.8 13.1 16.1 13.4-135.1-97.1-178.7-97.1-178.7" fill="#1B314F"/><path d="M295.019 258.815c.7-2.6 3.6-4.3 6.9-5.9 2.3-1.3 5.2-3 5.6-3.9 1.3-7.5 2-15.1 2-22.6 0-1.6-2.6-4.3-4.9-6.2-2.6-2.6-5.2-5.2-5.6-7.9-2.3-21.3-10.2-42-23-59 1 11.8.7 26.2-2.6 43 23.6 41.6 8.9 94.1-21.6 125.9 20.5-15.8 35.9-38.1 43.2-63.4m-118.1-18.7c-3.6-14.1-17.7-21.6-22.3-21.3-5.2.7-12.5 1.6-14.8 3.3 4.3-6.6 10.2-9.8 16.1-11.5 4.9-14.1 15.4-43 17.7-44.9 1.3-1 4.6-2 10.2-3.6 3.3-.7 7.9-2 8.5-2.6 1.3-2 14.4-33.4 15.4-35.7-.3-2.3-6.9-19-13.8-35.1-16.7 12.1-34.8 8.9-34.8 8.9s12.8-3.6 25.9-23c12.8-19.3.7-45.9.7-45.9s-44.9 67.5-50.5 68.9c-5.6 1.3-9.5-5.6-9.5-5.6s-11.8 30.8-15.1 42c-3.3 11.1.7 21.6 3.6 26.9 3.3 5.2 10.2 18.4.7 31.8 1.3-5.9-4.6-15.1-8.9-20.7-1.6 14.4-5.9 48.9-7.2 54.4-.7 3.9-3 8.2-6.9 15.7-2 3.9-5.9 10.8-6.9 14.1 1.3 5.9 6.2 20 9.5 24.3 4.6 1.6 11.1 3.3 16.7 4.3 2.6 0 5.9-1.3 10.5-5.6 8.5-7.9 14.1-12.1 15.7-20.7 1.6-8.2 1-21 4.9-24.6 3.6-3.6 11.5-5.2 17.7-3.6-4.9 0-10.5 2.3-10.5 2.3s9.5-1.6 13.1 5.2c3.6 6.9.7 10.8-5.2 14.8-4.9 3.3-19.3 18.4-24.3 24.9h9.9c3.9 0 6.6-.7 7.9-2 3.3-3.3 7.5-6.9 11.5-10.5 3.9-3.6 9.5-8.5 10.8-10.2 2.6-3.9 4.3-8.9 3.6-14.1v-.6zm-16.4-159.3 22-32.5s3 13.1-4.6 22c-9.5 10.8-17.7 10.5-17.4 10.5m-60.6 183.3c-4.3.3-5.9-4.9-4.9-7.9 1-2.6 11.8-21.6 11.8-21.6l-2.6 13.1s5.2-.7 5.2 5.2c0 4.6-5.3 10.8-9.5 11.2m34.4-97.1c-2 7.5-18.7 4.3-12.5-19.7 0 0 3 11.5 5.9 10.5 3-1 36.4-53.4 36.4-53.4s-4.3 13.8-7.2 20.7c11.5 2.3 14.8 15.7 8.5 23-6.2 6.8-21.9 16.6-31.1 18.9" fill="#fff"/><path d="M209.419 70.615c-2.3 3.6-4.6 6.9-6.9 9.5 4.9 12.1 17.7 43.9 17.7 45.6 0 2-6.2 18-6.9 18.7-.7.3-8.2 1-11.1 1-3.3 7.9-6.6 15.4-7.2 16.4-1 1.3-3.9 2.3-10.2 3.9-3.3 1-8.2 2.3-8.9 3-1.6 2-10.5 25.2-16.4 41.6 7.9-1.3 14.8.3 16.4 1 12.8-24.3 23-37.4 25.6-37.4 2.6-.3 33.8 4.3 45.9-24.9 11.8-28.9-5.2-53.4-5.9-54.4.7.3 26.9 12.5 33.4 51.8 14.8 18.7 24.3 41.3 26.9 65.3 0 1.6 2.6 3.9 4.3 5.9 3 3 5.9 5.9 5.9 8.9 0 7.9-.7 15.7-2 23.3-.7 2.6-3.9 4.6-7.2 6.2-2 1.3-4.9 3-5.2 3.9-7.2 25.9-23.6 48.9-44.9 65.3 45.2-21.6 76.4-67.9 76.4-121 0-69.3-52.5-126.4-119.7-133.6m-51.5 172.1c0-4.6-6.2-5.6-8.9-4.9-2.6.7-3.3 4.9-3.6 7.2s0 9.5-3 13.8c.7-.7 5.2-5.6 7.5-7.9 3.4-2.9 8-3.9 8-8.2m-53.1-130.1c2.3-4.3.3-7.2-1.6-8.9l-.7-.7c-3.9-2-28.5-11.1-52.8-19.7 21.3 14.1 44.9 27.9 48.9 29.8 2.9 1.4 4.9 1.8 6.2-.5" fill="#fff"/><path d="M197.719 97.615c-1.2-2.9-2.5-5.9-3.8-8.9-16.3 11.8-33.8 9-34.7 8.9.9.1 18.3 5.6 38.5 0m34.2-22.6c-7.3-2.1-14.8-3.6-22.5-4.4-2.3 3.6-4.6 6.9-6.9 9.5 1.4 3.4 3.4 8.3 5.5 13.7 8.1-3.9 16.4-9.8 23.9-18.8m-55 165.1c-3.6-14.1-17.7-21.6-22.3-21.3-5.2.7-12.5 1.6-14.8 3.3 4.3-6.6 10.2-9.8 16.1-11.5 1.7-4.8 4-11.3 6.4-17.9-5.6 3-25.4 13.5-27.1 14.6-2 1.3-8.9 15.1-14.1 29.5-3-9.2-9.5-14.8-9.8-15.1.3 1.6 7.2 28.9 4.9 37.1-2.3 8.5-16.7 16.1-16.7 16.1l21.7 4.8.6-.6c8.5-7.9 14.1-12.1 15.7-20.7 1.6-8.2 1-21 4.9-24.6 3.6-3.6 11.5-5.2 17.7-3.6-1.8 0-3.6.3-5.3.7 5.6.1 13 2.2 12.8 13.4 0 8.5-9.5 9.2-19 17.1-1.9 1.6-4 3.4-6.1 5.4-3.8 4.1-7.3 8.1-9.3 10.7h9.8c3.9 0 6.6-.7 7.9-2 3.3-3.3 7.5-6.9 11.5-10.5 3.9-3.6 9.5-8.5 10.8-10.2 2.6-3.9 4.3-8.9 3.6-14.1v-.6z" fill="#94A6C3"/><path d="M204.119 165.415c-11.5 0-26.9 7.5-26.9 7.5l-15.1 37c6.7-.6 12.3.7 13.8 1.3 12.8-24.3 23-37.4 25.6-37.4 2.6-.3 33.8 4.3 45.9-24.9 11.8-28.9-5.2-53.4-5.9-54.4 13.8 45.3-16.7 70.5-37.4 70.9m90.9 93.4c.7-2.6 3.6-4.3 6.9-5.9 2.3-1.3 5.2-3 5.6-3.9 1.3-7.5 2-15.1 2-22.6 0-1.6-2.6-4.3-4.9-6.2-2.6-2.6-5.2-5.3-5.6-7.9-2.3-21.3-10.2-42-23-59 1 11.8.7 26.2-2.6 42.9 23.6 41.6 8.9 94.1-21.6 125.9 20.5-15.7 35.9-38 43.2-63.3" fill="#94A6C3"/><path d="M325.419 197.215c-11.7-66.2-78.7-100.3-83.8-102.6 2.1 1 25.9 13.1 32.9 49.4 16.3 19 26.5 42.8 29.3 67.9 0 1.6 2.3 3.9 4.6 5.9 3 3 5.9 5.9 5.9 8.9 0 7.9-.7 15.7-2 23.3-.7 2.6-3.9 4.3-7.2 6.2-2 1.3-4.9 3-5.2 3.9-6.7 23.7-20.7 44.8-39.3 60.8-1.5 1.3-3 2.5-4.6 3.8 35.3-20 60.2-50.4 68.3-85 3.1-13.7 3.7-28 1.1-42.5" fill="#94A6C3"/><path d="m136.918 160.815 17.1-29.2s9.8 4.9 4.9 12.8c-6.3 9.2-22 16.4-22 16.4" fill="#FFD923"/><path d="M331.018 157.215c1.6 3 42 77.4-.3 158.7 6.6-6.6 12.1-13.4 17.1-20 28.2-39.3 24.3-93.4-8.2-129.5-2.7-3-5.6-6.3-8.6-9.2m56.1 34.1c-.7-42-14.8-78-42-106.9l-.7-.7c-23.9-25.2-59-37.1-93.8-32.1-13.1 1.6-26.2 4.3-36.4 7.5-1.6.3-3.3.7-4.9 1.3h.7c2.6-.3 50.5-2.6 95.1 26.9 46.3 30.5 67.2 64.3 82 104m-92.5-162.3c-21.6-10.8-44.3-16.4-66.9-16.7-8.5 0-16.4.7-23.6 2-25.6 4.6-46.6 23-53.8 47.5 0 0 5.2-8.2 17.7-16.7 4.6-6.2 11.8-16.1 18.7-24.3 2 4.3 4.3 9.5 4.9 12.1 22.7-8.5 54.2-13.1 103-3.9m-205.6 14.4c-.7 2.6-13.4 47.2 24.9 48.5-22.2-13.4-24.9-48.2-24.9-48.5m62.7-31.8c-2.3 1-51.8 17.1-23.6 60 0 0-5.9-42.3 23.6-60" fill="#D82122"/></svg>