<svg viewBox="0 0 23223 5556" xmlns="http://www.w3.org/2000/svg" xml:space="preserve" style="fill-rule:evenodd;clip-rule:evenodd;stroke-linejoin:round;stroke-miterlimit:2"><g fill="#fff"><path d="m2759.26 702.508 1198.36-1.027v98.056H2759.26z" style="fill:#ed1c24" transform="scale(5.55556)"/><path d="M17208.125 2368.063q0 426.8-118 686.273c-78.611 172.978-197.223 298.8-355.778 377.472-158.39 78.55-381.278 117.8-668.556 117.745h-721.723V1186.829h714.667c279.278 0 501.334 40.422 666.056 121.266q247.167 121.267 365.167 378.162 118.167 256.889 118.167 681.806m-497.667-3.356c0-206.266-20.111-359.05-60.278-458.344a384.78 384.78 0 0 0-206.056-214.262q-145.417-64.889-430.5-64.805h-185.556v1481.612h184.667c190.334 0 333.723-21.883 430.111-65.661 96.334-43.772 165.056-116.911 206-219.417 41.112-102.333 61.667-255.372 61.612-459.123m771.445 1184.585 783.556-2362.463h627.612l785 2362.463h-494.445l-157.277-479.656h-911.668l-153.667 479.656zm769.5-901.223h637.945l-318.166-976.423zm3735.392-280.006c0 410.817-86.889 718.645-260.778 923.479s-426.667 307.255-758.39 307.255q-525.25 0-772.166-323.411c-164.667-215.611-247-518.05-247.112-907.323 0-391.4 82.334-694.384 247.112-908.962q247.083-321.867 772.167-322.033c352.222 0 610.167 107.255 773.778 321.778 163.667 214.516 245.445 517.589 245.39 909.217m-497.668 0q0-419.934-118.833-611.934c-79.167-128-213.445-192-402.667-192-189.445 0-323.723 64-402.778 192q-118.667 192-118.834 611.934c0 280.006 40.167 484.012 120.556 612.017 80.333 128 214.056 192 401.056 192 189.389 0 323.667-64 402.667-192q118.583-192.011 118.833-612.017"/><path d="M529.534 488.5q0 61.953-42.593 90.695-42.593 28.743-118.247 28.743H213.811V195.712h145.65q79.229 0 113.481 23.083 34.253 23.083 34.253 73.123 0 38.422-18.616 62.251-18.615 23.827-58.23 31.87 51.827 7.148 75.506 32.763 23.679 25.616 23.679 69.698M422.307 310.384q0-23.53-17.275-32.614-17.275-9.085-53.613-9.085h-53.614v88.462h51.231q37.232 0 55.251-10.425 18.02-10.424 18.02-36.338m21.446 170.669q0-27.7-18.765-39.167t-70.293-11.467h-56.89v103.056h42.593q49.146 0 67.761-4.765 18.617-4.767 27.105-16.084 8.489-11.319 8.489-31.573m339.55 126.885v-32.466q-45.57 41.7-97.695 41.699-51.826 0-78.335-27.253-26.509-27.254-26.509-69.846 0-33.36 13.553-55.103 13.551-21.743 40.21-34.104 26.657-12.36 76.696-17.424l65.826-6.255v-13.999q0-26.211-15.787-35.891-15.786-9.68-46.167-9.68-25.019 0-43.039 8.34t-26.658 23.828l-59.868-38.423q15.786-26.51 49.443-40.657 33.658-14.148 81.314-14.148 72.974 0 105.29 25.467 32.317 25.465 32.317 83.547v212.368zm-6.254-145.054-39.019 3.575q-41.401 3.573-59.719 15.786t-18.318 36.635q0 21.446 11.914 29.339t31.572 7.893q14 0 34.104-8.787 20.106-8.786 39.466-24.87zm362.481 145.054V435.78c0-32.565-2.92-54.308-8.78-65.23q-8.79-16.381-33.21-16.381c-22.84 0-50.34 15.091-82.51 45.273v208.496h-76.844V295.492h76.844V336c16.28-16.283 33.66-28.594 52.13-36.934 18.46-8.34 36.53-12.51 54.2-12.51q47.955 0 71.49 26.211c15.69 17.474 23.53 46.366 23.53 86.675v208.496zm351.47 0-83.4-129.267-30.08 32.167v97.1h-76.85V164.437h76.85v253.77l105.14-122.715h89.06l-117.95 131.352 124.5 181.094zM1628.31 164.437h76.84v443.501h-76.84zM1855.27 471.82c1.39 27.799 8.14 47.755 20.26 59.868q18.165 18.17 57.18 18.169c15.09 0 28.35-1.886 39.77-5.659 11.41-3.773 21.39-11.021 29.93-21.743l57.19 40.805c-12.51 18.07-28.75 31.573-48.7 40.508-19.96 8.936-47.21 13.403-81.76 13.403-51.43 0-89.8-13.502-115.12-40.507q-37.98-40.508-37.98-122.417 0-167.691 150.12-167.691c44.48 0 78.38 12.56 101.72 37.678 23.33 25.119 34.99 61.705 34.99 109.759v37.827zm131.35-53.018q0-71.186-62.25-71.186c-13.7 0-24.92 2.333-33.65 6.999q-13.11 7-21 20.85-7.905 13.85-12.36 43.337zm384.23 100.078q0 30.977-15.63 53.018c-10.43 14.694-25.22 25.913-44.38 33.657-19.17 7.744-41.06 11.616-65.68 11.616q-97.995 0-133.44-54.506l57.19-40.21c9.33 12.708 20.1 21.197 32.32 25.466 12.21 4.269 25.26 6.404 39.16 6.404q54.81 0 54.81-31.87c0-9.333-5.16-16.531-15.49-21.595-10.33-5.063-26.51-10.275-48.55-15.637q-62.25-13.701-87.57-38.72-25.32-25.02-25.32-64.932c0-27.601 10.58-50.337 31.73-68.208 21.14-17.871 52.27-26.807 93.37-26.807 28 0 52.67 4.468 74.02 13.404 21.34 8.935 37.78 22.338 49.29 40.21l-57.48 40.805q-20.55-31.572-67.02-31.572c-15.89 0-27.9 2.73-36.04 8.191q-12.21 8.19-12.21 20.998c0 8.142 3.67 14.645 11.02 19.51s21.84 9.978 43.49 15.339c35.54 8.737 60.91 17.424 76.1 26.062s26.7 19.36 34.55 32.168q11.76 19.212 11.76 47.209m305.6 0c0 20.652-5.21 38.324-15.64 53.018-10.42 14.694-25.22 25.913-44.38 33.657s-41.05 11.616-65.68 11.616c-65.32 0-109.8-18.168-133.43-54.506l57.18-40.21c9.34 12.708 20.11 21.197 32.32 25.466s25.27 6.404 39.17 6.404c36.54 0 54.8-10.624 54.8-31.87q0-14-15.48-21.595c-10.33-5.063-26.51-10.275-48.55-15.637-41.51-9.134-70.69-22.041-87.57-38.72q-25.32-25.02-25.32-64.932c0-27.601 10.57-50.337 31.72-68.208s52.27-26.807 93.38-26.807q42 0 74.01 13.404c21.35 8.935 37.78 22.338 49.3 40.21l-57.49 40.805c-13.7-21.048-36.04-31.572-67.01-31.572-15.89 0-27.9 2.73-36.04 8.191-8.15 5.46-12.22 12.46-12.22 20.998 0 8.142 3.68 14.645 11.02 19.51 7.35 4.865 21.85 9.978 43.49 15.339 35.54 8.737 60.91 17.424 76.1 26.062s26.71 19.36 34.55 32.168c7.85 12.808 11.77 28.544 11.77 47.209" transform="scale(5.55556)"/></g></svg>