<svg xmlns="http://www.w3.org/2000/svg" viewBox="0 0 1200 300" xml:space="preserve"><path d="M406.9 159.8v-6.9c0-19.9 6.7-32.2 23.1-32.2 13.8 0 20.3 8.6 20.3 22h26.5V138c0-23.1-15.1-41.7-47.5-41.7-35.2 0-50.5 23.7-50.5 56.5v6.9c0 32.6 15.3 56.5 50.5 56.5 32.4 0 47.5-18.1 47.5-39.9v-4.5h-26.5c0 11.2-6 19.9-20.3 19.9-16.5.1-23.1-12.2-23.1-31.9M544 216.4c35.8 0 51.8-24 51.8-56.5V153c0-32.8-16-56.5-51.8-56.5s-51.8 23.7-51.8 56.5v6.9c0 32.5 16 56.5 51.8 56.5m0-24.6c-16.4 0-23.7-12.3-23.7-31.9V153c0-19.9 7.3-32.2 23.7-32.2s23.7 12.3 23.7 32.2v6.9c0 19.6-7.3 31.9-23.7 31.9m170 21.8v-78.3c0-20.7-10.1-38.9-35.2-38.9-18.1 0-30 7.6-37.1 17.9l-2.6-15.1h-24.8l1.9 32.4v82h28.1V134c3.2-5.4 10.6-13.2 23.7-13.2 12.7 0 18.1 8 18.1 19v73.8zm121.6 0v-78.3c0-20.7-10.1-38.9-35.2-38.9-18.1 0-30 7.6-37.1 17.9l-2.6-15.1h-24.8l1.9 32.4v82h28.1V134c3.2-5.4 10.6-13.2 23.7-13.2 12.7 0 18.1 8 18.1 19v73.8zm122.7-46.9v-13.2c0-32.6-16-57.2-51.2-57.2-35.4 0-52.4 24.6-52.4 57.2v5.6c0 32.6 16.6 57.2 53.5 57.2 32.8 0 50.1-18.1 50.1-38.6v-.9h-26.5c0 8.6-8 17.7-23.3 17.7-16 0-24.6-9.1-25.7-27.8zm-51.8-48.5c15.3 0 22.7 9.7 23.5 27.8h-47.3c1.2-18.1 8.7-27.8 23.8-27.8m63.9-19 31.1 55.9-31.1 58.5h31.9l21.6-44 21.8 44h31.9l-31.1-58.5 31.1-55.9H1045l-20.9 41.2-21.1-41.2zm161.9 0V66.8h-28.1v32.4h-47.5v24.6h47.5v52.4c0 29.6 16.4 40.1 39.9 40.1 10.1 0 16-1.9 17.7-2.8v-23.3c-1.3.6-6.9 1.5-11 1.5-11.7 0-18.6-3.2-18.6-18.6v-49.4h31.7V99.2z" style="fill:#fff"/><linearGradient id="a" gradientUnits="userSpaceOnUse" x1="56.54" y1="100.04" x2="279.571" y2="243.93"><stop offset="0" style="stop-color:#29c1fc"/><stop offset=".502" style="stop-color:#ab00ff"/><stop offset=".508" style="stop-color:#ac03fc"/><stop offset=".641" style="stop-color:#c840b8"/><stop offset=".76" style="stop-color:#de7082"/><stop offset=".863" style="stop-color:#ee935b"/><stop offset=".945" style="stop-color:#f7a844"/><stop offset=".996" style="stop-color:#fbb03b"/></linearGradient><path d="m129.2 52.8-22.7 22.7-49.3 48.9C37.1 144.9 45 165.8 59 179.8L99.4 220c3.6 3.6 17.6 18.3 28.8 6.8 6.5-6.5 5-16.5 1.4-20.5l-46.4-46c-8.3-8.3-4.3-15.8 4-23.7L126.7 97l24.8 24.8c8.6 8.6 19.4 11.9 28.4 2.9s3.6-17.6-5-26.3l-27.3-27.3z" style="fill:url(#a)"/><linearGradient id="b" gradientUnits="userSpaceOnUse" x1="90.583" y1="47.273" x2="313.614" y2="191.164"><stop offset="0" style="stop-color:#29c1fc"/><stop offset=".502" style="stop-color:#ab00ff"/><stop offset=".508" style="stop-color:#ac03fc"/><stop offset=".641" style="stop-color:#c840b8"/><stop offset=".76" style="stop-color:#de7082"/><stop offset=".863" style="stop-color:#ee935b"/><stop offset=".945" style="stop-color:#f7a844"/><stop offset=".996" style="stop-color:#fbb03b"/></linearGradient><path d="M131.4 54.6c-6.5-6.5-15.8-10.1-24.8-1.1s-4.3 19.1 1.4 24.8" style="fill:url(#b)"/><linearGradient id="c" gradientUnits="userSpaceOnUse" x1="78.94" y1="65.319" x2="301.971" y2="209.21"><stop offset="0" style="stop-color:#29c1fc"/><stop offset=".502" style="stop-color:#ab00ff"/><stop offset=".508" style="stop-color:#ac03fc"/><stop offset=".641" style="stop-color:#c840b8"/><stop offset=".76" style="stop-color:#de7082"/><stop offset=".863" style="stop-color:#ee935b"/><stop offset=".945" style="stop-color:#f7a844"/><stop offset=".996" style="stop-color:#fbb03b"/></linearGradient><path d="m211.2 244.8 22.7-22.7 49.3-49.3c20.5-20.5 12.6-41.4-1.8-55.4l-40.3-39.9c-3.6-3.6-17.6-18.3-28.8-6.8-6.5 6.5-5 16.5-1.4 20.5l46.4 46c8.3 8.3 4.3 15.8-4 23.7l-39.6 39.6-24.8-24.8c-8.6-8.6-19.4-11.9-28.4-2.9s-3.6 17.6 5 26.3l27.3 27.3z" style="fill:url(#c)"/><linearGradient id="d" gradientUnits="userSpaceOnUse" x1="44.804" y1="118.23" x2="267.835" y2="262.12"><stop offset="0" style="stop-color:#29c1fc"/><stop offset=".502" style="stop-color:#ab00ff"/><stop offset=".508" style="stop-color:#ac03fc"/><stop offset=".641" style="stop-color:#c840b8"/><stop offset=".76" style="stop-color:#de7082"/><stop offset=".863" style="stop-color:#ee935b"/><stop offset=".945" style="stop-color:#f7a844"/><stop offset=".996" style="stop-color:#fbb03b"/></linearGradient><path d="M209.1 243c6.5 6.5 15.8 10.4 24.8 1.4s4.3-19.1-1.4-24.8" style="fill:url(#d)"/></svg>