<svg width="150" height="21" viewBox="0 0 150 21" fill="none" xmlns="http://www.w3.org/2000/svg"><path d="M7.574 20.198q-3.338 0-5.47-1.571Q0 17.028 0 14.082q0-.617.14-1.515.365-2.02 1.038-4.853Q3.086 0 11.024 0q2.16 0 3.872.73 1.71.701 2.693 2.131.981 1.402.982 3.367 0 .588-.14 1.486a64 64 0 0 1-1.01 4.853q-.983 3.845-3.395 5.751-2.412 1.88-6.452 1.88m.393-4.04q1.57 0 2.665-.926 1.121-.925 1.599-2.833a68 68 0 0 0 .982-4.6q.111-.59.112-1.207 0-2.552-2.665-2.552-1.57 0-2.693.925-1.094.926-1.571 2.834-.505 1.878-1.01 4.6a6 6 0 0 0-.112 1.178q0 2.58 2.693 2.581m13.45 3.759q-.309 0-.477-.196a.67.67 0 0 1-.084-.505L24.727.982a.8.8 0 0 1 .309-.505.86.86 0 0 1 .533-.196h7.462q3.113 0 4.993 1.29Q39.93 2.86 39.93 5.3q0 .702-.168 1.46-.702 3.225-2.833 4.768-2.105 1.543-5.779 1.543h-3.787l-1.29 6.144a.8.8 0 0 1-.309.505.86.86 0 0 1-.533.196zm9.93-10.716q1.178 0 2.048-.645.898-.645 1.178-1.852.084-.476.085-.841 0-.813-.477-1.234-.477-.45-1.627-.45h-3.367l-1.066 5.022zm14.905 10.716q-.309 0-.477-.196a.6.6 0 0 1-.112-.505l3.114-14.531h-4.994q-.307 0-.477-.197a.67.67 0 0 1-.084-.505l.645-3.001a.8.8 0 0 1 .309-.505.86.86 0 0 1 .533-.196h15.092q.309 0 .477.196a.6.6 0 0 1 .112.337.5.5 0 0 1-.028.168l-.645 3.001a.8.8 0 0 1-.309.505.78.78 0 0 1-.533.197H53.91l-3.114 14.53a.8.8 0 0 1-.308.506.86.86 0 0 1-.533.196zm14.854 0q-.309 0-.477-.196a.6.6 0 0 1-.112-.505L64.416.982a.8.8 0 0 1 .309-.505.86.86 0 0 1 .532-.196h3.787q.309 0 .477.196a.6.6 0 0 1 .113.337.5.5 0 0 1-.028.168l-3.872 18.234a.8.8 0 0 1-.308.505.86.86 0 0 1-.533.196zm10.681 0q-.307 0-.477-.196-.168-.197-.112-.505L75.07.982a.8.8 0 0 1 .309-.505.9.9 0 0 1 .561-.196h3.03q.673 0 .87.617l3.057 8.836L89.713.898q.14-.225.392-.421.28-.196.674-.196h3.057q.309 0 .477.196a.6.6 0 0 1 .112.337.5.5 0 0 1-.028.168l-3.87 18.234a.8.8 0 0 1-.31.505.86.86 0 0 1-.532.196H86.29q-.308 0-.477-.196a.67.67 0 0 1-.084-.505l2.188-10.352-4.292 5.695a3 3 0 0 1-.533.477 1.04 1.04 0 0 1-.589.168h-1.459q-.588 0-.813-.645l-1.992-5.947-2.244 10.604a.8.8 0 0 1-.309.505.86.86 0 0 1-.533.196zm24.761 0q-.307 0-.477-.196-.168-.225-.112-.505L99.86.982a.8.8 0 0 1 .308-.505.85.85 0 0 1 .533-.196h3.787q.309 0 .477.196a.6.6 0 0 1 .112.337.5.5 0 0 1-.028.168l-3.871 18.234a.8.8 0 0 1-.309.505.85.85 0 0 1-.533.196zm17.611.281q-2.469 0-4.236-.674-1.74-.673-2.637-1.795-.87-1.122-.87-2.497 0-.225.056-.673a.84.84 0 0 1 .225-.42.67.67 0 0 1 .449-.169h3.59q.337 0 .505.112.197.112.393.393.196.729.898 1.206.73.477 1.991.477 1.6 0 2.581-.505.983-.505 1.178-1.375.028-.112.028-.336 0-.701-.869-1.094-.87-.42-3.198-.982-2.721-.59-4.124-1.767-1.402-1.207-1.402-3.142 0-.673.168-1.375.561-2.609 2.777-4.095Q113.906 0 117.441 0q2.132 0 3.787.757t2.553 1.936q.925 1.15.925 2.3 0 .338-.028.477a.75.75 0 0 1-.252.421.57.57 0 0 1-.421.168h-3.759q-.617 0-.841-.477-.029-.644-.674-1.094-.645-.448-1.683-.448-1.234 0-2.048.448-.785.45-.981 1.319a2 2 0 0 0-.029.364q0 .674.786 1.123.814.42 2.833.87 3.142.616 4.573 1.766 1.458 1.15 1.458 3.058 0 .645-.168 1.403-.617 2.861-3.002 4.348-2.355 1.459-6.311 1.459m13.203-.281q-.309 0-.477-.196-.169-.197-.112-.505L130.644.982a.8.8 0 0 1 .309-.505.9.9 0 0 1 .561-.196h3.029q.673 0 .87.617l3.058 8.836 6.816-8.836q.141-.225.393-.421.28-.196.673-.196h3.058q.309 0 .477.196a.6.6 0 0 1 .112.337.5.5 0 0 1-.028.168l-3.871 18.234a.8.8 0 0 1-.309.505.85.85 0 0 1-.533.196h-3.394q-.309 0-.477-.196a.67.67 0 0 1-.084-.505l2.188-10.352-4.292 5.695a3 3 0 0 1-.533.477 1.04 1.04 0 0 1-.589.168h-1.459q-.59 0-.813-.645l-1.992-5.947-2.244 10.604a.8.8 0 0 1-.309.505.85.85 0 0 1-.533.196z" fill="#F8F8F8"/></svg>