<?xml version="1.0" encoding="UTF-8"?><svg id="Layer_1" xmlns="http://www.w3.org/2000/svg" viewBox="0 0 1487.47 300.59"><defs><style>.cls-1{fill:#fff;}</style></defs><g><path class="cls-1" d="M138.07,138.47c-10.04-4.03-22.3-7.39-36.78-10.09h-.31c-14.07-2.48-24.63-4.76-31.66-6.83-7.04-2.06-12.57-4.86-16.6-8.38-4.03-3.52-6.05-8.38-6.05-14.59,0-9.1,3.41-16.03,10.24-20.79,6.83-4.76,15.83-7.14,27-7.14,12.21,0,22.08,3.1,29.64,9.31,6.78,5.58,10.93,12.66,12.46,21.24,.3,1.71,1.75,2.98,3.49,2.99l34.34,.26c2.11,.02,3.79-1.79,3.58-3.89-1.15-11.48-4.94-21.91-11.35-31.31-7.14-10.45-16.97-18.57-29.48-24.36-12.52-5.79-26.74-8.69-42.67-8.69-15.1,0-28.71,2.79-40.81,8.38-12.1,5.59-21.52,13.34-28.24,23.28-6.73,9.93-10.09,21.11-10.09,33.52,0,13.66,3,24.62,9,32.9,6,8.28,13.86,14.54,23.59,18.78,9.72,4.24,21.41,7.6,35.07,10.09l1.55,.31c14.48,2.69,25.29,5.07,32.43,7.14,7.14,2.07,12.77,4.97,16.91,8.69,4.14,3.73,6.21,8.8,6.21,15.21,0,9.11-3.72,16.24-11.17,21.41-7.45,5.17-17.07,7.76-28.86,7.76-14.07,0-25.45-3.57-34.14-10.71-7.91-6.5-12.56-14.83-13.96-25.01-.24-1.76-1.7-3.1-3.48-3.12l-34.3-.52c-2.09-.03-3.77,1.73-3.61,3.81,.97,12.52,4.89,23.8,11.74,33.84,7.55,11.07,17.95,19.76,31.19,26.07,13.24,6.31,28.45,9.47,45.62,9.47,15.93,0,30.21-2.9,42.83-8.69,12.62-5.79,22.5-13.81,29.64-24.05,7.14-10.24,10.71-21.77,10.71-34.6,0-13.66-3.11-24.67-9.31-33.05-6.21-8.38-14.33-14.59-24.36-18.62Z"/><path class="cls-1" d="M348.97,222.11h-5.36c-3.1,0-5.54-.82-7.29-2.48-1.76-1.65-2.64-4.34-2.64-8.07v-59.28c0-18.83-6-33.16-18-42.98-12-9.82-26.13-14.83-48.27-14.83-20.9,0-37.23,4.54-50.05,13.44-11.69,8.11-18.74,19.22-21.15,33.34-.37,2.19,1.28,4.21,3.51,4.21h31.54c1.58,0,3-1.04,3.42-2.56,1.44-5.23,4.62-9.49,9.53-12.8,5.69-3.83,12.45-5.74,21.35-5.74,16.78,0,28.72,10.35,28.72,25.76v4.82c0,1.97-1.6,3.56-3.56,3.56h-28.57c-23.17,0-40.76,4.55-52.76,13.65-12,9.11-18,22.04-18,38.79,0,14.49,5.48,25.87,16.45,34.14,8.23,6.21,18.06,9.79,28.19,11.36,7.74,1.2,15.68,1.64,23.44,.39,8.12-1.3,14.72-4.65,21.32-9.42,5.93-4.28,10.88-9.77,15.4-16.47,2.2-3.78,7.98-2.27,7.98,2.11v5.26c0,9.56,7.74,17.32,17.31,17.32h27.51c1.97,0,3.56-1.6,3.56-3.56v-26.39c0-1.97-1.6-3.56-3.56-3.56Zm-54.71-31.97c0,7.66-1.61,14.33-4.81,20.02-6.72,11.93-18.74,18.15-32.28,18.15-7.87,0-14.18-1.86-18.93-5.58-4.76-3.73-7.14-8.69-7.14-14.9,0-7.03,2.64-12.46,7.91-16.29,5.28-3.82,12.77-5.74,22.5-5.74h29.19c1.97,0,3.56,1.6,3.56,3.56v.78Z"/><path class="cls-1" d="M463.95,38.47h-41.04c-21.65,0-39.21,17.55-39.21,39.21v17.22c0,1.97-1.6,3.56-3.56,3.56h-23.43c-1.97,0-3.56,1.6-3.56,3.56v26.7c0,1.97,1.6,3.56,3.56,3.56h23.43c1.97,0,3.56,1.6,3.56,3.56v116.21c0,1.97,1.6,3.56,3.56,3.56h31.98c1.97,0,3.56-1.6,3.56-3.56v-116.21c0-1.97,1.6-3.56,3.56-3.56h37.26c1.97,0,3.56-1.6,3.56-3.56v-26.7c0-1.97-1.6-3.56-3.56-3.56h-37.26c-1.97,0-3.56-1.6-3.56-3.56v-15.48c0-3.94,3.19-7.13,7.13-7.13h34.01c1.97,0,3.56-1.6,3.56-3.56v-26.7c0-1.97-1.6-3.56-3.56-3.56Z"/><path class="cls-1" d="M620.62,130.55c-6.93-11.58-16.4-20.48-28.4-26.69-12-6.21-25.87-9.4-41.58-9.4s-29.28,3.45-41.28,10.18c-12,6.73-21.31,16.24-27.93,28.55-6.62,12.31-9.93,26.74-9.93,43.29s3.42,30.37,10.24,42.67c6.83,12.31,16.6,21.78,29.33,28.4,12.72,6.63,27.67,9.93,44.85,9.93,13.24,0,25.09-2.43,35.54-7.29,10.44-4.86,18.88-11.53,25.29-20.02,5.49-7.26,9.24-15.21,11.24-23.85,.52-2.24-1.17-4.39-3.47-4.39h-32.13c-1.54,0-2.89,1-3.38,2.45-2.26,6.69-6.26,11.97-11.99,15.86-6.42,4.34-14.38,6.52-23.9,6.52-7.86,0-14.74-1.65-20.64-4.96-5.9-3.31-10.55-7.96-13.97-13.97-1.35-2.37-2.45-4.87-3.33-7.45-.94-2.77-1.62-5.63-2.09-8.52-.16-1.01-.31-2.03-.43-3.05-.24-2.1,1.43-3.94,3.55-3.94h110.79c1.8,0,3.34-1.33,3.54-3.12,.15-1.31,.26-2.65,.31-4.02,.1-2.48,.15-4.76,.15-6.83,0-15.31-3.47-28.76-10.4-40.35Zm-33.29,27.31h-69.38c-2.28,0-3.99-2.11-3.49-4.33,1.11-4.87,3.03-9.27,5.76-13.2,3.52-5.07,8.07-8.95,13.65-11.64,5.59-2.69,11.69-4.03,18.31-4.03,10.76,0,19.66,2.9,26.69,8.69,6.03,4.97,10.02,11.69,11.94,20.17,.51,2.23-1.2,4.35-3.48,4.35Z"/></g><g><g><path class="cls-1" d="M809.59,46.24h73.36c69.41,0,103.67,42.74,103.67,104.58s-34.25,104.58-103.67,104.58h-73.36V46.24Zm38.5,173.69h36.67c43.65,0,61.23-29.7,61.23-69.11s-17.58-69.11-61.23-69.11h-36.67V219.93Z"/><path class="cls-1" d="M1119.08,46.24l68.51,196.42v12.73h-37.28l-14.85-45.78h-88.21l-14.85,45.78h-36.98v-12.73l68.5-196.42h55.17Zm-60.32,128.83h65.17l-20.01-61.23c-4.55-13.94-7.58-24.86-10-38.49h-5.46c-2.13,13.64-5.16,24.55-9.7,38.19l-20.01,61.54Z"/><path class="cls-1" d="M1403.4,150.82c0,63.35-43.04,110.03-105.18,110.03s-105.18-46.68-105.18-110.03,43.04-110.03,105.18-110.03,105.18,46.68,105.18,110.03Zm-170.05,0c0,42.44,26.98,73.96,64.87,73.96s64.87-31.52,64.87-73.96-26.98-73.96-64.87-73.96-64.87,31.52-64.87,73.96Z"/></g><path class="cls-1" d="M703.52,45.25V255.34c0,5.03,4.08,9.11,9.11,9.11h14.03c7.18,0,13.01,5.82,13.01,13.01v14.02c0,5.03,4.08,9.11,9.11,9.11h27.35c5.03,0,9.11-4.08,9.11-9.11v-19.53c0-5.03-4.08-9.11-9.11-9.11h-21.85c-7.18,0-13.01-5.82-13.01-13.01V50.75c0-7.18,5.82-13.01,13.01-13.01h21.84c5.03,0,9.11-4.08,9.11-9.11V9.11c0-5.03-4.08-9.11-9.11-9.11h-27.35c-5.03,0-9.11,4.08-9.11,9.11v14.02c0,7.18-5.82,13.01-13.01,13.01h-14.03c-5.03,0-9.11,4.08-9.11,9.11Z"/><path class="cls-1" d="M1487.47,255.34V45.25c0-5.03-4.08-9.11-9.11-9.11h-14.03c-7.18,0-13.01-5.82-13.01-13.01V9.11c0-5.03-4.08-9.11-9.11-9.11h-27.35c-5.03,0-9.11,4.08-9.11,9.11V28.63c0,5.03,4.08,9.11,9.11,9.11h21.85c7.18,0,13.01,5.82,13.01,13.01V249.84c0,7.18-5.82,13.01-13.01,13.01h-21.84c-5.03,0-9.11,4.08-9.11,9.11v19.53c0,5.03,4.08,9.11,9.11,9.11h27.35c5.03,0,9.11-4.08,9.11-9.11v-14.02c0-7.18,5.82-13.01,13.01-13.01h14.03c5.03,0,9.11-4.08,9.11-9.11Z"/></g></svg>
