<svg width="161" height="38" viewBox="0 0 161 38" fill="none" xmlns="http://www.w3.org/2000/svg"><path d="M53.154 32.79q-3.564 0-5.89-1.575-2.325-1.576-2.813-4.764l3.601-.863q.413 2.326 1.8 3.226 1.427.863 3.302.863 1.838 0 2.813-.675 1.013-.713 1.013-1.876 0-1.125-.937-1.65-.938-.526-2.739-.864l-1.313-.225q-1.875-.338-3.414-.975-1.538-.638-2.438-1.763t-.9-2.889q0-2.625 1.95-4.051 1.95-1.463 5.177-1.463 3.114 0 5.102 1.425 2.026 1.387 2.626 3.789l-3.601 1.013q-.337-1.688-1.426-2.363-1.088-.713-2.7-.713-1.577 0-2.477.6-.9.563-.9 1.613 0 1.125.863 1.65.9.525 2.4.788l1.314.226q1.988.338 3.601.975 1.65.6 2.626 1.726.975 1.088.975 2.963 0 2.814-2.1 4.352-2.064 1.5-5.515 1.5m9.506-.525V6.005h3.864v10.392h.6q.525-1.05 1.838-1.988 1.314-.939 3.977-.938 2.1 0 3.714.938 1.65.937 2.588 2.663t.938 4.09v11.103h-3.864V21.461q0-2.4-1.2-3.526-1.2-1.163-3.302-1.163-2.4 0-3.864 1.576-1.425 1.575-1.425 4.576v9.341zm27.251.338q-2.1 0-3.751-.938t-2.589-2.663-.938-4.127V13.771h3.864v10.841q0 2.401 1.2 3.564 1.201 1.126 3.34 1.126 2.362 0 3.789-1.576 1.463-1.613 1.463-4.614V13.77h3.864v18.494h-3.79V29.49h-.6q-.525 1.125-1.875 2.139-1.35.975-3.977.975m20.268-.339q-1.689 0-2.701-1.012-.976-1.014-.976-2.702V17.035H101.4V13.77h5.102V7.656h3.864v6.115h8.291V7.656h3.826v6.115h5.553v3.264h-5.553v10.841q0 1.126 1.088 1.126h3.827v3.263h-5.065q-1.725 0-2.701-1.012-.975-1.014-.975-2.702V17.035h-8.291v10.841q0 1.126 1.051 1.126h3.864v3.263zm28.257.525q-2.814 0-4.915-1.162a8.64 8.64 0 0 1-3.301-3.34q-1.163-2.137-1.163-5.026v-.45q0-2.89 1.163-5.027 1.2-2.139 3.264-3.339t4.802-1.2q2.663 0 4.651 1.2 2.026 1.163 3.152 3.264 1.125 2.1 1.125 4.914v1.463h-14.218q.075 2.439 1.613 3.902 1.576 1.425 3.902 1.425 2.175 0 3.263-.975a6.8 6.8 0 0 0 1.726-2.251l3.226 1.65q-.562 1.05-1.538 2.214-.975 1.163-2.626 1.95-1.65.789-4.126.789m-5.402-11.666h10.279q-.187-2.064-1.539-3.264-1.35-1.2-3.526-1.2t-3.564 1.2q-1.35 1.2-1.65 3.264m16.205 11.14V13.771h3.789v2.175h.6q.451-1.163 1.426-1.688.976-.562 2.476-.562h2.213v3.489h-2.363q-1.913 0-3.114 1.05-1.163 1.013-1.163 3.151v10.88z" fill="#fff"/><path fill-rule="evenodd" clip-rule="evenodd" d="M0 29.54h31.262v5.188H0zm0-5.081h31.262v4.15H0zm0-4.636h31.262v3.502H0zm0-4.821h31.262v2.724H0zm0-5.146h31.262v2.076H0zm0-6.118h31.262v1.038H0z" fill="#fff"/></svg>