<svg width="700" height="159" viewBox="0 0 700 159" fill="none" xmlns="http://www.w3.org/2000/svg"><path d="M2.162 79.26c0 42.526 34.473 76.999 76.999 76.999s77.001-34.473 77.001-76.998-34.475-77-77.001-77-76.999 34.474-76.999 77Z" fill="#0C0C4F" stroke="#EC796B" stroke-width="4"/><path fill-rule="evenodd" clip-rule="evenodd" d="m44.316 60.65 1.95-6.026a3.94 3.94 0 0 1 2.594-2.554l6.054-1.862c.838-.256.845-1.438.014-1.708L48.9 46.55a3.95 3.95 0 0 1-2.555-2.593l-1.86-6.055c-.256-.836-1.438-.845-1.708-.011l-1.95 6.025a3.95 3.95 0 0 1-2.593 2.555l-6.054 1.86c-.838.257-.848 1.437-.014 1.707l6.027 1.95a3.95 3.95 0 0 1 2.555 2.596l1.86 6.052c.255.838 1.438.847 1.707.013" fill="#FAFAFA"/><path fill-rule="evenodd" clip-rule="evenodd" d="M140.01 57.143c-2.495-2.791-6.391-4.363-10.178-5.007-3.817-.619-7.82-.562-11.588.108-7.625 1.29-14.552 4.447-20.594 8.342-3.137 1.911-5.813 4.123-8.585 6.376-1.335 1.139-2.553 2.352-3.821 3.548l-3.466 3.448c-3.765 3.936-7.476 7.52-11.067 10.492-3.605 2.957-6.976 5.203-10.298 6.772-3.32 1.577-6.871 2.504-11.501 2.653-4.59.162-10.02-.667-15.827-2.034-5.839-1.361-11.97-3.301-18.822-4.97 2.39 6.632 5.99 12.493 10.613 17.851 4.676 5.265 10.516 10.064 18.018 13.22 7.393 3.226 16.684 4.384 25.371 2.637 8.71-1.677 16.354-5.708 22.533-10.369 6.195-4.709 11.206-10.073 15.431-15.65a106 106 0 0 0 2.627-3.608l2.333-3.455c1.621-2.138 3.097-4.571 4.702-6.689 3.146-4.435 6.247-8.865 9.851-12.947 1.814-2.07 3.727-4.05 5.985-5.953 1.127-.928 2.343-1.837 3.691-2.656a17.5 17.5 0 0 1 4.592-2.11" fill="#EC796B"/><path fill-rule="evenodd" clip-rule="evenodd" d="M140.01 57.143c-2.681-6.766-7.666-12.462-14.356-16.665-6.651-4.156-15.887-6.277-25.039-4.47a41 41 0 0 0-12.747 4.8c-3.827 2.234-7.256 4.922-10.225 7.806-1.482 1.447-2.827 2.956-4.163 4.474l-3.464 4.416-5.35 7.109c-6.82 9.146-14.165 19.865-26.218 23.042-11.832 3.117-16.964.356-24.185-.785 1.32 3.41 2.956 6.72 5.173 9.633 2.176 2.971 4.747 5.762 7.942 8.154 1.615 1.149 3.32 2.283 5.214 3.245a36 36 0 0 0 6.087 2.363c4.316 1.183 9.175 1.597 13.88.961 4.707-.628 9.206-2.12 13.139-4.101 3.961-1.962 7.412-4.352 10.494-6.874 6.125-5.087 10.89-10.708 14.915-16.39a116 116 0 0 0 5.561-8.63l2-3.446a85 85 0 0 1 1.859-2.965c2.534-3.793 5.013-6.834 8.024-9.117 2.969-2.342 7.104-4.072 12.629-4.474 5.502-.407 11.854.345 18.83 1.913" fill="#FAFAFA"/><path fill-rule="evenodd" clip-rule="evenodd" d="M110.243 113.359c0 4.969 4.031 9 9 9s8.995-4.031 8.995-9-4.025-9-8.995-9-9 4.031-9 9" fill="#EC796B"/><path d="M690.596 57.17v-9.087a.65.65 0 0 0-.652-.652h-51.78a.65.65 0 0 0-.652.652v9.088h21.044v58.79h10.995v-58.79zm-107.201-9.74a.65.65 0 0 0-.653.653v67.225c0 .36.292.653.653.653h43.574c.36 0 .652-.293.652-.653v-8.991h-33.884V84.78h27.995v-9.45h-27.995V57.073h31.471v-8.99a.65.65 0 0 0-.653-.653zm-25.268 68.132.237.399h8.446a.653.653 0 0 0 .653-.653V48.083a.65.65 0 0 0-.653-.652h-10.149v47.46a254 254 0 0 0-6.138-9.264 308 308 0 0 0-9.576-13.348 313 313 0 0 0-10.251-13.25q-5.131-6.486-9.695-11.341l-.241-.257h-7.949a.65.65 0 0 0-.653.652v67.225c0 .36.292.653.653.653h10.149V65.118a193 193 0 0 1 4.432 5.449 304 304 0 0 1 6.547 8.665l.002.003.003.003a302 302 0 0 1 6.739 9.435l.003.005.003.004a378 378 0 0 1 6.646 9.729l.002.003.003.003a237 237 0 0 1 5.868 9.14l.003.005.004.006a361 361 0 0 1 4.912 7.994m-59.249-66.766.249-.273a.652.652 0 0 0-.482-1.092h-12.038l-.244.283q-2.396 2.78-5.959 6.535a720 720 0 0 1-7.425 7.715 951 951 0 0 1-8.002 8.098 622 622 0 0 1-6.045 5.829V47.43H448.59a.65.65 0 0 0-.652.652v67.225c0 .36.292.653.652.653h10.342V84.87q3.405 2.23 6.962 5.22l.004.003.003.003a105 105 0 0 1 8.43 7.759l.006.007.007.006a103 103 0 0 1 7.95 8.716l.002.003.003.004q3.735 4.501 6.601 8.992l.24.377h11.734a.653.653 0 0 0 .566-.978l-.14-.244q-2.643-4.597-6.628-9.652a147 147 0 0 0-8.346-9.898 152 152 0 0 0-9.123-9.123q-4.221-3.87-8.066-6.641a810 810 0 0 0 6.933-6.855 983 983 0 0 0 8.115-8.212 847 847 0 0 0 7.924-8.213l.003-.004.004-.003a1108 1108 0 0 0 6.762-7.342" fill="#fff"/><path fill-rule="evenodd" clip-rule="evenodd" d="M385.525 46.917a.65.65 0 0 0-.652.652v67.78c0 .361.292.653.652.653h9.317v-24.92h13.61a109 109 0 0 1 4.481 5.754l.005.007.006.008a103 103 0 0 1 6.604 9.775l.002.003.002.004a91 91 0 0 1 4.792 8.898l.219.471h11.025a.648.648 0 0 0 .592-.917 97 97 0 0 0-4.168-8.149 147 147 0 0 0-6.824-11.002 157 157 0 0 0-4.335-6.046c4.112-1.258 7.366-3.531 9.719-6.831l.002-.003c2.825-3.993 4.225-8.69 4.225-14.055 0-3.687-.641-7.06-1.938-10.108-1.302-3.092-3.261-5.657-5.871-7.68-2.592-2.034-5.785-3.328-9.546-3.908a18.6 18.6 0 0 0-2.717-.292 35 35 0 0 0-2.385-.094l-8.575-.001q-9.121-.001-18.242.001m39.118 22.082q.001 2.669-.892 5.26a11.24 11.24 0 0 1-2.797 4.368c-1.218 1.19-2.824 2.034-4.859 2.506q-.967.22-2.085.31h-.002q-1.099.09-1.947.09h-17.219V56.465h17.219q.848 0 1.947.091l.017.001.018.001q1.087.045 2.02.3l.02.006.021.004c2.027.44 3.628 1.281 4.843 2.497l.003.003.004.003a11.2 11.2 0 0 1 2.797 4.414v.002l.001.002q.891 2.54.891 5.21m-64.231 37.914.001.003.001.003a349 349 0 0 0 3.096 8.514l.199.528h11.029c.453 0 .768-.45.613-.876a1937 1937 0 0 0-7.322-19.822 654 654 0 0 0-6.667-17.2 474 474 0 0 0-6.38-15.467c-2.134-4.98-4.38-9.91-6.719-14.795a.65.65 0 0 0-.588-.37h-8.797a.65.65 0 0 0-.588.37 389 389 0 0 0-6.719 14.795 667 667 0 0 0-6.475 15.463l-.002.004-.001.004a1020 1020 0 0 0-6.569 17.196 1917 1917 0 0 0-7.323 19.822.652.652 0 0 0 .613.876h10.558l.001-.001h.206l.242-.26q3.82-4.102 8.542-8.05l.003-.002.003-.003q4.74-4.047 9.884-7.507l.008-.005.007-.006a111 111 0 0 1 10.199-6.426l.004-.002.004-.002a86 86 0 0 1 3.639-1.96l2.308 6.593.002.005a705 705 0 0 1 2.988 8.578m-11.865-32.507.002.006.002.005a691 691 0 0 1 2.787 7.174l-.212.095q-4.904 2.234-10.54 5.77a159 159 0 0 0-10.706 7.353l1.499-4.28a742 742 0 0 1 5.949-16.117 257 257 0 0 1 5.696-13.483 258 258 0 0 1 5.523 13.477" fill="#fff"/><path d="M313.893 57.17v-9.087a.65.65 0 0 0-.653-.652h-51.779a.65.65 0 0 0-.652.652v9.088h21.044v58.137c0 .36.292.653.653.653h9.69c.36 0 .652-.293.652-.653V57.171zm-100.595 57.957-.003-.001c-3.988-1.7-7.305-4.127-9.935-7.283l-.003-.004-.003-.003c-2.603-3.196-4.294-6.964-5.079-11.284a.817.817 0 0 1 .675-.952l8.771-1.382a.814.814 0 0 1 .916.602c1.066 4.142 3.26 7.356 6.586 9.686 3.376 2.31 7.357 3.477 11.977 3.477 2.997 0 5.675-.463 8.046-1.374 2.398-.942 4.26-2.263 5.619-3.947 1.337-1.656 2.012-3.617 2.012-5.922 0-1.431-.254-2.603-.725-3.544l-.012-.026a7 7 0 0 0-1.946-2.543 11.9 11.9 0 0 0-2.856-1.873 22 22 0 0 0-3.448-1.287l-.011-.003-17.495-5.196a38 38 0 0 1-5.649-2.192l-.005-.002-.006-.003a21 21 0 0 1-4.958-3.422l-.004-.004-.003-.002q-2.217-2.118-3.517-5.023l-.002-.005c-.882-2-1.309-4.325-1.309-6.954 0-4.215 1.089-7.854 3.304-10.874h.001c2.224-3.022 5.223-5.318 8.967-6.894 3.74-1.575 7.935-2.337 12.573-2.305 4.7.033 8.928.876 12.668 2.548 3.769 1.64 6.895 4.006 9.363 7.1 2.506 3.1 4.177 6.799 5.026 11.076a.815.815 0 0 1-.659.962l-9.009 1.573a.814.814 0 0 1-.944-.666c-.455-2.67-1.465-4.933-3.019-6.815l-.009-.011c-1.536-1.928-3.462-3.405-5.792-4.434l-.008-.003c-2.335-1.062-4.907-1.613-7.727-1.643h-.001c-2.703-.03-5.119.4-7.261 1.274-2.148.877-3.824 2.088-5.06 3.618l-.005.006c-1.213 1.473-1.816 3.164-1.816 5.106 0 1.93.55 3.418 1.591 4.543 1.123 1.181 2.504 2.135 4.156 2.857q2.626 1.078 5.099 1.778h.004l13.056 3.765q2.284.632 5.212 1.737 3.065 1.138 5.909 3.2c1.952 1.38 3.555 3.223 4.814 5.51 1.294 2.316 1.914 5.196 1.914 8.594 0 3.416-.69 6.486-2.092 9.19-1.36 2.687-3.27 4.944-5.72 6.765l-.006.004c-2.436 1.778-5.257 3.12-8.451 4.033q-4.795 1.416-10.238 1.415c-4.955 0-9.451-.842-13.473-2.543" fill="#fff"/></svg>