<svg version="1.0" xmlns="http://www.w3.org/2000/svg" width="933.333" height="933.333" viewBox="0 0 700 700"><path d="M315 1c-62.4 6.2-111.7 23.5-162.4 56.8-5.5 3.6-10.7 7.1-11.5 7.8-.9.7-6.1 4.8-11.7 9.2C56.3 132.4 10.1 218.3 1.2 313c-1.4 14.9-.6 60.6 1.2 70.7.2 1 .7 4.4 1.1 7.7.9 7.3 1.3 10 2.5 15.6.5 2.5 1.2 5.6 1.4 7 5.4 30.8 24 77.5 43.5 108.8 5.1 8.2 16 24.2 17 25.2.4.3 2.6 3.2 5.1 6.4 28.1 37.1 72.1 73.1 116.5 95.4 30.9 15.4 75 29.3 104 32.6 2.8.4 6.8.9 9 1.2 16.8 2.3 51.2 2.9 69 1.3 67.7-6.2 129.4-30.2 181.1-70.5 55.4-43.1 95.4-99.9 116.8-165.9 4.9-15.1 10.1-36.6 12-49.5.3-1.9.8-4.5 1-5.7.3-1.2.8-5.3 1.2-9 .3-3.7.8-7.9 1.1-9.3.8-5.1 1-50.8.2-59.5-3.5-37.2-10.2-65.8-23.1-99-11.2-28.6-33.2-66.6-49.7-86-1.4-1.7-4.2-5.1-6.1-7.5-7-9-23.1-25.5-35.5-36.6-41.5-37-91.9-63.3-147.5-77-8.5-2.1-27.1-5.5-34.8-6.4-5.3-.7-11-1.4-12.7-1.6C369.4.6 322.2.3 315 1m56 213.5c6.3.8 14.6 2.1 18.5 3 3.8.8 7.9 1.7 9 1.9 16.3 3.1 47.5 15.6 62.4 25 2.2 1.4 4.3 2.6 4.6 2.6 1 0 18.5 12.3 26.2 18.5 16.8 13.5 35.9 34.4 48.1 52.6 5.2 7.8 14.2 23.6 14.2 24.9 0 .4-2.1 4.5-4.7 9.1-29.1 52.2-77.7 91.8-134.8 110-9.7 3.1-28 7.4-36 8.4-2.7.4-6.1.9-7.5 1.2-5.9 1.3-46.9 1.1-57-.3-74-9.7-138.3-52.1-175.1-115.4-8-13.6-7.7-12.1-3.9-19.2 17-32.3 45.1-62.9 78.5-85.3 27.1-18.2 65.5-32.3 100-36.9 13.3-1.7 43.2-1.8 57.5-.1"/></svg>