<?xml version="1.0" standalone="no"?>
<!DOCTYPE svg PUBLIC "-//W3C//DTD SVG 20010904//EN"
 "http://www.w3.org/TR/2001/REC-SVG-20010904/DTD/svg10.dtd">
<svg version="1.0" xmlns="http://www.w3.org/2000/svg"
 width="700.000000pt" height="700.000000pt" viewBox="0 0 700.000000 700.000000"
 preserveAspectRatio="xMidYMid meet">
<metadata>
Created by potrace 1.14, written by Peter Selinger 2001-2017
</metadata>
<g transform="translate(0.000000,700.000000) scale(0.100000,-0.100000)"
fill="#000000" stroke="none">
<path d="M3150 6990 c-624 -62 -1117 -235 -1624 -568 -55 -36 -107 -71 -115
-78 -9 -7 -61 -48 -117 -92 -731 -576 -1193 -1435 -1282 -2382 -14 -149 -6
-606 12 -707 2 -10 7 -44 11 -77 9 -73 13 -100 25 -156 5 -25 12 -56 14 -70
54 -308 240 -775 435 -1088 51 -82 160 -242 170 -252 4 -3 26 -32 51 -64 281
-371 721 -731 1165 -954 309 -154 750 -293 1040 -326 28 -4 68 -9 90 -12 168
-23 512 -29 690 -13 677 62 1294 302 1811 705 554 431 954 999 1168 1659 49
151 101 366 120 495 3 19 8 45 10 57 3 12 8 53 12 90 3 37 8 79 11 93 8 51 10
508 2 595 -35 372 -102 658 -231 990 -112 286 -332 666 -497 860 -14 17 -42
51 -61 75 -70 90 -231 255 -355 366 -415 370 -919 633 -1475 770 -85 21 -271
55 -348 64 -53 7 -110 14 -127 16 -61 8 -533 11 -605 4z m560 -2135 c63 -8
146 -21 185 -30 38 -8 79 -17 90 -19 163 -31 475 -156 624 -250 22 -14 43 -26
46 -26 10 0 185 -123 262 -185 168 -135 359 -344 481 -526 52 -78 142 -236
142 -249 0 -4 -21 -45 -47 -91 -291 -522 -777 -918 -1348 -1100 -97 -31 -280
-74 -360 -84 -27 -4 -61 -9 -75 -12 -59 -13 -469 -11 -570 3 -740 97 -1383
521 -1751 1154 -80 136 -77 121 -39 192 170 323 451 629 785 853 271 182 655
323 1000 369 133 17 432 18 575 1z"/>
</g>
</svg>
