<svg width="45" height="45" viewBox="0 0 45 45" fill="none" xmlns="http://www.w3.org/2000/svg"><g filter="url(#a)"><path fill-rule="evenodd" clip-rule="evenodd" d="M28.616.994A22 22 0 0 0 22.05 0C9.872 0 0 9.872 0 22.05c0 9.895 6.517 18.268 15.493 21.06a22 22 0 0 0 6.558.991c12.178 0 22.05-9.872 22.05-22.05 0-9.892-6.513-18.263-15.485-21.057M22.156 44.1h-.21zm13.491-22.05c-2.503 4.97-7.652 8.379-13.596 8.379-5.945 0-11.093-3.41-13.597-8.38 2.504-4.97 7.652-8.379 13.597-8.379s11.093 3.41 13.596 8.38M22.156 0" fill="url(#b)"/></g><g filter="url(#c)"><path fill-rule="evenodd" clip-rule="evenodd" d="M22.05 0C34.229 0 44.1 9.872 44.1 22.05S34.229 44.1 22.05 44.1 0 34.229 0 22.05 9.872 0 22.05 0m0 0c8.403 0 15.215 6.812 15.215 15.215S30.453 30.43 22.05 30.43 6.836 23.618 6.836 15.215 13.648 0 22.05 0m0 44.101C9.874 44.101 0 34.229 0 22.051S9.873 0 22.05 0c12.18 0 22.052 9.872 22.052 22.05S34.229 44.1 22.051 44.1m0 0c-8.402 0-15.214-6.812-15.214-15.215S13.649 13.67 22.052 13.67s15.214 6.812 15.214 15.215S30.454 44.1 22.052 44.1" fill="url(#d)" fill-opacity=".8"/></g><defs><linearGradient id="b" x1="22.051" y1="58.985" x2="22.051" y2="-32.525" gradientUnits="userSpaceOnUse"><stop stop-color="#A7AB10"/><stop offset="1" stop-color="#F4F858"/></linearGradient><linearGradient id="d" x1="22.05" y1="49.834" x2="23.153" y2="0" gradientUnits="userSpaceOnUse"><stop stop-color="#DFE225"/><stop offset=".557" stop-color="#5F6117"/><stop offset="1" stop-color="#DFE225"/></linearGradient><filter id="a" x="-11.025" y="-11.025" width="66.152" height="66.151" filterUnits="userSpaceOnUse" color-interpolation-filters="sRGB"><feFlood flood-opacity="0" result="BackgroundImageFix"/><feGaussianBlur in="BackgroundImageFix" stdDeviation="5.513"/><feComposite in2="SourceAlpha" operator="in" result="effect1_backgroundBlur_354_4926"/><feBlend in="SourceGraphic" in2="effect1_backgroundBlur_354_4926" result="shape"/></filter><filter id="c" x="-11.025" y="-11.025" width="66.151" height="66.151" filterUnits="userSpaceOnUse" color-interpolation-filters="sRGB"><feFlood flood-opacity="0" result="BackgroundImageFix"/><feGaussianBlur in="BackgroundImageFix" stdDeviation="5.513"/><feComposite in2="SourceAlpha" operator="in" result="effect1_backgroundBlur_354_4926"/><feBlend in="SourceGraphic" in2="effect1_backgroundBlur_354_4926" result="shape"/></filter></defs></svg>