<svg width="77" height="27" viewBox="0 0 77 27" fill="none" xmlns="http://www.w3.org/2000/svg"><rect width="77" height="27" rx="13.5" fill="#DFE225"/><path d="M20.512 19 16.448 7.8h1.424l3.472 9.56 3.48-9.56h1.416L22.176 19zm6.557-8h1.344v8H27.07zm.688-1.304a.74.74 0 0 1-.536-.208.7.7 0 0 1-.216-.52q0-.312.216-.52a.73.73 0 0 1 .528-.208q.312 0 .528.208a.7.7 0 0 1 .216.52.7.7 0 0 1-.216.52.7.7 0 0 1-.52.208m4.94 9.456a4.3 4.3 0 0 1-1.264-.24 3.7 3.7 0 0 1-1.072-.6 2.3 2.3 0 0 1-.664-.88l1.152-.496q.12.272.432.512t.72.384.824.144q.44 0 .824-.136t.624-.4a.93.93 0 0 0 .248-.648q0-.4-.272-.624a1.8 1.8 0 0 0-.672-.36 18 18 0 0 0-.816-.256 9 9 0 0 1-1.472-.496q-.648-.295-1.024-.744-.368-.455-.368-1.16 0-.744.408-1.288a2.7 2.7 0 0 1 1.088-.84 3.5 3.5 0 0 1 1.44-.296q.968 0 1.768.416t1.192 1.128l-1.08.632a1.4 1.4 0 0 0-.416-.504 2.33 2.33 0 0 0-1.376-.488q-.465-.015-.872.12-.4.136-.648.416a1 1 0 0 0-.24.68q0 .4.256.608.264.208.68.336.424.12.92.28.727.232 1.36.536.632.304 1.016.76.392.456.384 1.128 0 .735-.44 1.288-.44.544-1.144.832a3.5 3.5 0 0 1-1.496.256M37.038 11h1.344v8h-1.344zm.688-1.304a.74.74 0 0 1-.536-.208.7.7 0 0 1-.216-.52q0-.312.216-.52a.73.73 0 0 1 .528-.208q.312 0 .528.208a.7.7 0 0 1 .216.52.7.7 0 0 1-.216.52.7.7 0 0 1-.52.208m6.722 2.648h-1.816L42.624 19H41.28l.008-6.656h-1.376V11h1.376l-.008-2.512h1.344L42.632 11h1.816z" fill="#000"/><path d="M53 18 63 8m0 0v9.6M63 8h-9.6" stroke="#000" stroke-width="1.5" stroke-linecap="round" stroke-linejoin="round"/></svg>