<svg width="66" height="65" viewBox="0 0 66 65" fill="none" xmlns="http://www.w3.org/2000/svg"><path d="M56.324 13.039a4.372 4.372 0 1 1 4.338-4.373 4.37 4.37 0 0 1-4.338 4.375M60.662-.01H30.227a4.356 4.356 0 0 0-4.338 4.338v13.44h21.333v21.33h13.44A4.355 4.355 0 0 0 65 34.762V4.33a4.356 4.356 0 0 0-4.338-4.34M34.564 13.039a4.376 4.376 0 1 1-.007-8.752 4.376 4.376 0 0 1 .007 8.752m21.76 21.725a4.372 4.372 0 0 1-.88-8.663 4.373 4.373 0 1 1 .88 8.663M5.338 24.88h30.435a4.336 4.336 0 0 1 4.338 4.338v30.435a4.356 4.356 0 0 1-4.338 4.338H5.338A4.355 4.355 0 0 1 1 59.652V29.217a4.355 4.355 0 0 1 4.338-4.338m15.218 15.218a4.334 4.334 0 1 0 .003 8.668 4.334 4.334 0 0 0-.003-8.668m-10.88-10.88a4.34 4.34 0 0 0-3.758 6.507 4.4 4.4 0 0 0 1.59 1.588 4.34 4.34 0 0 0 6.505-3.757 4.356 4.356 0 0 0-4.337-4.338m21.726 21.725a4.34 4.34 0 1 0 4.336 4.339 4.35 4.35 0 0 0-4.302-4.339z" stroke="#242424" stroke-width="1.416" stroke-linecap="round" stroke-linejoin="round"/></svg>