<svg width="64" height="64" viewBox="0 0 64 64" fill="none" xmlns="http://www.w3.org/2000/svg"><path d="M3.31 26.864h7.724v19.862H5.517a1.103 1.103 0 1 0 0 2.207h52.966a1.104 1.104 0 0 0 0-2.207h-5.517V26.864h7.724a1.103 1.103 0 0 0 .579-2.044L32.579 7.164a1.1 1.1 0 0 0-1.158 0L2.73 24.82a1.103 1.103 0 0 0 .58 2.044m9.931 0h11.035v19.862H13.24zm24.276 0v19.862H26.483V26.864zM50.76 46.726H39.724V26.864H50.76zM32 9.402l24.792 15.255H7.208zm32 47.255a1.104 1.104 0 0 1-1.103 1.103H1.103a1.104 1.104 0 0 1 0-2.207h61.794A1.103 1.103 0 0 1 64 56.657" fill="#242424"/></svg>