<svg width="64" height="64" viewBox="0 0 64 64" fill="none" xmlns="http://www.w3.org/2000/svg"><path d="M60.16 3H3.84a3.84 3.84 0 0 0-2.715 1.127A3.85 3.85 0 0 0 0 6.847v43.61a3.85 3.85 0 0 0 1.125 2.72 3.84 3.84 0 0 0 2.715 1.127h6.4v6.413A1.284 1.284 0 0 0 11.52 62a1.28 1.28 0 0 0 1.28-1.283v-6.413h38.4v6.413A1.284 1.284 0 0 0 52.48 62a1.28 1.28 0 0 0 1.28-1.283v-6.413h6.4a3.84 3.84 0 0 0 2.715-1.127A3.85 3.85 0 0 0 64 50.457V6.846c0-1.02-.405-1.998-1.125-2.72A3.84 3.84 0 0 0 60.16 3m0 48.74H3.84a1.28 1.28 0 0 1-1.28-1.284V6.849a1.284 1.284 0 0 1 1.28-1.283h56.32a1.28 1.28 0 0 1 1.28 1.283v21.804H53.7a14.12 14.12 0 0 0-4.769-9.35 14.06 14.06 0 0 0-19.434.886 14.12 14.12 0 0 0-3.9 9.747c0 3.63 1.397 7.122 3.9 9.747a14.06 14.06 0 0 0 19.434.887 14.12 14.12 0 0 0 4.768-9.352h7.741v19.24a1.284 1.284 0 0 1-1.28 1.282M43.296 28.651a3.85 3.85 0 0 0-1.677-2.036 3.83 3.83 0 0 0-4.88.839 3.852 3.852 0 0 0 2.287 6.272 3.83 3.83 0 0 0 2.593-.473 3.85 3.85 0 0 0 1.677-2.037h7.83a11.55 11.55 0 0 1-4.01 7.533 11.505 11.505 0 0 1-15.808-.883 11.556 11.556 0 0 1 0-15.864 11.505 11.505 0 0 1 15.808-.883 11.55 11.55 0 0 1 4.01 7.532z" fill="#242424"/></svg>