<svg width="30" height="30" viewBox="0 0 30 30" fill="none" xmlns="http://www.w3.org/2000/svg"><path d="M15.255.54c7.917 0 14.358 6.442 14.358 14.36s-6.44 14.36-14.358 14.36S.896 22.818.896 14.9 7.337.54 15.255.54m0 27.09c7.019 0 12.729-5.71 12.729-12.73s-5.71-12.73-12.73-12.73C8.237 2.17 2.527 7.88 2.527 14.9s5.71 12.73 12.729 12.73M9.022 14.9a.815.815 0 0 0 .815.815h8.869l-4.027 4.027a.815.815 0 1 0 1.152 1.152l5.417-5.417a1 1 0 0 0 .102-.125q.018-.031.033-.062.023-.038.041-.079c.012-.026.018-.055.026-.082q.012-.034.02-.07a.8.8 0 0 0 0-.318q-.008-.035-.02-.07-.01-.041-.026-.082c-.011-.028-.027-.053-.04-.079l-.034-.062a1 1 0 0 0-.102-.124L15.83 8.906a.816.816 0 0 0-1.4.573.8.8 0 0 0 .248.58l4.027 4.026H9.837a.815.815 0 0 0-.815.815" fill="#fff"/></svg>