<svg width="66" height="65" viewBox="0 0 66 65" fill="none" xmlns="http://www.w3.org/2000/svg">
<path d="M56.3237 13.0388C55.4574 13.0457 54.6086 12.7951 53.885 12.3188C53.1613 11.8425 52.5955 11.162 52.2592 10.3636C51.9229 9.56517 51.8314 8.68489 51.9962 7.83439C52.161 6.98389 52.5747 6.20151 53.1848 5.58651C53.795 4.9715 54.574 4.55158 55.4232 4.38004C56.2724 4.20849 57.1533 4.29304 57.9544 4.62297C58.7554 4.95289 59.4404 5.51331 59.9224 6.23314C60.4045 6.95297 60.6618 7.79975 60.6618 8.66607C60.6632 9.8204 60.2078 10.9284 59.395 11.748C58.5821 12.5677 57.478 13.0323 56.3237 13.0406M60.6618 -0.0102539H30.2272C29.0781 -0.00569916 27.9773 0.452819 27.1647 1.2654C26.3522 2.07797 25.8936 3.17876 25.8891 4.32791V17.7679H47.2218V39.0989H60.6618C61.811 39.0944 62.9118 38.6359 63.7244 37.8233C64.5369 37.0107 64.9954 35.9099 65 34.7608V4.32964C64.9959 3.18019 64.5376 2.07896 63.725 1.26601C62.9123 0.453059 61.8113 -0.00569626 60.6618 -0.0102539ZM34.5637 13.0388C33.6978 13.0395 32.8513 12.7833 32.1311 12.3027C31.4109 11.8221 30.8494 11.1387 30.5178 10.3389C30.1861 9.53913 30.0992 8.65893 30.2679 7.8097C30.4367 6.96048 30.8535 6.18039 31.4658 5.56816C32.078 4.95593 32.8581 4.53906 33.7073 4.37032C34.5565 4.20157 35.4367 4.28852 36.2365 4.62018C37.0363 4.95183 37.7197 5.51328 38.2003 6.23347C38.6809 6.95367 38.9371 7.80024 38.9364 8.66607C38.9367 9.24037 38.8237 9.80909 38.604 10.3397C38.3844 10.8704 38.0623 11.3525 37.6562 11.7586C37.2501 12.1647 36.768 12.4868 36.2373 12.7064C35.7067 12.9261 35.138 13.0391 34.5637 13.0388ZM56.3237 34.7642C55.4559 34.7711 54.6057 34.5196 53.8814 34.0417C53.157 33.5639 52.5912 32.8813 52.2559 32.0809C51.9207 31.2805 51.8312 30.3984 51.9988 29.547C52.1664 28.6955 52.5836 27.9132 53.1972 27.2996C53.8108 26.686 54.5931 26.2688 55.4446 26.1012C56.296 25.9336 57.1781 26.0231 57.9785 26.3583C58.7789 26.6936 59.4615 27.2594 59.9393 27.9838C60.4172 28.7081 60.6687 29.5583 60.6618 30.4261C60.6537 31.5741 60.194 32.6728 59.3822 33.4846C58.5704 34.2964 57.4717 34.7561 56.3237 34.7642ZM5.33816 24.8788H35.7728C36.3426 24.8784 36.9069 24.9903 37.4334 25.2081C37.96 25.426 38.4384 25.7455 38.8413 26.1484C39.2442 26.5514 39.5638 27.0298 39.7816 27.5563C39.9995 28.0828 40.1114 28.6472 40.1109 29.217V59.6516C40.1064 60.8007 39.6478 61.9015 38.8353 62.7141C38.0227 63.5267 36.9219 63.9852 35.7728 63.9897H5.33816C4.18901 63.9852 3.08823 63.5267 2.27565 62.7141C1.46307 61.9015 1.00455 60.8007 1 59.6516V29.217C1.00455 28.0678 1.46307 26.9671 2.27565 26.1545C3.08823 25.3419 4.18901 24.8834 5.33816 24.8788ZM20.5563 40.097C19.5535 40.0974 18.5819 40.4454 17.807 41.0819C17.032 41.7183 16.5017 42.6037 16.3064 43.5873C16.111 44.5708 16.2627 45.5917 16.7357 46.476C17.2086 47.3602 17.9735 48.0532 18.9 48.4368C19.8265 48.8203 20.8574 48.8708 21.8169 48.5796C22.7765 48.2883 23.6054 47.6734 24.1624 46.8396C24.7195 46.0058 24.9702 45.0046 24.8718 44.0066C24.7735 43.0087 24.3322 42.0757 23.6231 41.3666C22.8085 40.5552 21.7061 40.0988 20.5563 40.097ZM9.67632 29.217C8.91487 29.2172 8.16688 29.4178 7.50746 29.7985C6.84805 30.1793 6.30041 30.7268 5.91955 31.3862C5.5387 32.0455 5.33802 32.7935 5.33768 33.5549C5.33734 34.3164 5.53735 35.0645 5.91762 35.7242C6.30198 36.3815 6.84952 36.9285 7.50724 37.3121C8.16685 37.6913 8.91454 37.8906 9.67538 37.8898C10.4362 37.8891 11.1835 37.6884 11.8424 37.3079C12.5013 36.9274 13.0486 36.3804 13.4295 35.7218C13.8104 35.0632 14.0115 34.316 14.0128 33.5552C14.0082 32.4063 13.5499 31.3058 12.7377 30.4932C11.9255 29.6807 10.8252 29.222 9.67632 29.217ZM31.4017 50.9424C30.5432 50.9417 29.7037 51.1957 28.9895 51.6722C28.2753 52.1488 27.7185 52.8264 27.3896 53.6195C27.0606 54.4125 26.9743 55.2853 27.1415 56.1275C27.3087 56.9696 27.7219 57.7432 28.3289 58.3504C28.9359 58.9577 29.7093 59.3712 30.5514 59.5387C31.3935 59.7063 32.2663 59.6203 33.0595 59.2917C33.8527 58.963 34.5305 58.4065 35.0074 57.6925C35.4842 56.9785 35.7385 56.1391 35.7382 55.2806C35.7355 54.1371 35.2826 53.0407 34.4774 52.2288C33.6723 51.4168 32.5797 50.9547 31.4363 50.9424H31.4017Z" stroke="#242424" stroke-width="1.41645" stroke-linecap="round" stroke-linejoin="round"/>
</svg>
